<?xml version="1.0" encoding="UTF-8"?>
<svg id="_Слой_2" data-name="Слой 2" xmlns="http://www.w3.org/2000/svg" xmlns:xlink="http://www.w3.org/1999/xlink" viewBox="0 0 645.5 412.27">
  <defs>
    <style>
      .cls-1 {
        fill: #0a69de;
      }

      .cls-1, .cls-2, .cls-3, .cls-4, .cls-5, .cls-6, .cls-7, .cls-8, .cls-9, .cls-10, .cls-11, .cls-12, .cls-13, .cls-14 {
        stroke-width: 0px;
      }

      .cls-2 {
        fill: #2088ef;
      }

      .cls-3 {
        fill: url(#linear-gradient);
      }

      .cls-4 {
        fill: #ccecff;
      }

      .cls-15 {
        stroke: #4ebdf4;
      }

      .cls-15, .cls-5, .cls-16 {
        fill: none;
      }

      .cls-15, .cls-16 {
        stroke-miterlimit: 10;
      }

      .cls-6 {
        fill: #1090f9;
      }

      .cls-7 {
        fill: #08a0ff;
      }

      .cls-16 {
        stroke: #6dcdfc;
      }

      .cls-8 {
        fill: url(#linear-gradient-2);
      }

      .cls-9 {
        fill: url(#linear-gradient-3);
      }

      .cls-17 {
        clip-path: url(#clippath);
      }

      .cls-10 {
        fill: #3fa9f5;
      }

      .cls-11 {
        fill: #4ebdf4;
      }

      .cls-12 {
        fill: #6ecfff;
      }

      .cls-13 {
        fill: #fff;
      }

      .cls-14 {
        fill: #a0d2ff;
      }
    </style>
    <linearGradient id="linear-gradient" x1="268.39" y1="202.7" x2="268.39" y2="95" gradientUnits="userSpaceOnUse">
      <stop offset="0" stop-color="#fff" stop-opacity=".1"/>
      <stop offset="1" stop-color="#009ee9"/>
    </linearGradient>
    <clipPath id="clippath">
      <rect class="cls-5" x="214.54" y="3.5" width="107.7" height="107.7" rx="14.56" ry="14.56"/>
    </clipPath>
    <linearGradient id="linear-gradient-2" x1="497.63" y1="244.82" x2="450.07" y2="121.44" gradientTransform="translate(627.91 -246.21) rotate(90)" xlink:href="#linear-gradient"/>
    <linearGradient id="linear-gradient-3" x1="290.2" y1="362.48" x2="211.63" y2="288.82" gradientTransform="translate(-138.46 532.58) rotate(-90)" xlink:href="#linear-gradient"/>
  </defs>
  <g id="OBJECT">
    <rect class="cls-1" x="32.66" y="213.96" width="76.17" height="76.17" rx="14.56" ry="14.56"/>
    <g>
      <path class="cls-6" d="M569.94,330.82v35.45c0,6.04-4.9,10.93-10.94,10.93h-35.44c-6.04,0-10.94-4.9-10.94-10.93v-35.45c0-6.04,4.9-10.93,10.94-10.93h35.44c6.04,0,10.94,4.9,10.94,10.93Z"/>
      <path class="cls-15" d="M523.56,379.05c-7.05,0-12.78-5.73-12.78-12.77v-35.45c0-7.04,5.73-12.77,12.78-12.77h35.44c7.05,0,12.78,5.73,12.78,12.77v35.45c0,7.04-5.73,12.77-12.78,12.77h-35.44Z"/>
    </g>
    <g>
      <g>
        <rect class="cls-13" x="229.08" y="234.33" width="193.5" height="85.63"/>
        <circle class="cls-13" cx="422.58" cy="277.14" r="42.81" transform="translate(-53.12 106.6) rotate(-13.53)"/>
        <circle class="cls-13" cx="229.08" cy="277.14" r="42.81" transform="translate(-128.87 243.16) rotate(-45)"/>
        <circle class="cls-13" cx="388.34" cy="234.33" r="34.25" transform="translate(-42.97 94.02) rotate(-13.09)"/>
        <circle class="cls-13" cx="255.91" cy="234.33" r="21.57"/>
        <circle class="cls-13" cx="311.55" cy="210.36" r="64.22" transform="translate(-40.87 79.55) rotate(-13.66)"/>
      </g>
      <path class="cls-16" d="M229.08,325.95c-26.91,0-48.81-21.9-48.81-48.81s21.85-48.76,48.72-48.81c1.6-7.2,6.03-13.49,12.34-17.41,0-.19,0-.38,0-.56,0-38.72,31.5-70.22,70.22-70.22,33.13,0,61.42,23.11,68.5,54.8,2.71-.57,5.48-.86,8.29-.86,20.27,0,37.08,15.05,39.85,34.57,24.29,2.79,43.21,23.47,43.21,48.49,0,26.91-21.9,48.81-48.81,48.81h-193.5Z"/>
      <path class="cls-13" d="M413.5,344.88h-175.33c-3.5,0-6.33-2.84-6.33-6.33h0c0-3.5,2.84-6.33,6.33-6.33h175.33c3.5,0,6.33,2.84,6.33,6.33h0c0,3.5-2.84,6.33-6.33,6.33Z"/>
      <path class="cls-7" d="M385.5,344.88h-147.33c-3.5,0-6.33-2.84-6.33-6.33h0c0-3.5,2.84-6.33,6.33-6.33h147.33c3.5,0,6.33,2.84,6.33,6.33h0c0,3.5-2.84,6.33-6.33,6.33Z"/>
      <g>
        <rect class="cls-7" x="303.45" y="253.75" width="44.76" height="66.2"/>
        <path class="cls-7" d="M323.7,216.99l-37.92,44.92c-1.53,1.81-.24,4.59,2.13,4.59h75.84c2.37,0,3.66-2.78,2.13-4.59l-37.92-44.92c-1.12-1.32-3.15-1.32-4.27,0Z"/>
      </g>
    </g>
    <g>
      <polygon class="cls-3" points="322.24 202.7 214.54 95 322.24 95 322.24 202.7"/>
      <g class="cls-17">
        <rect class="cls-7" x="214.54" y="3.5" width="107.7" height="107.7" rx="14.56" ry="14.56"/>
        <path class="cls-12" d="M296.47,67.8h-20.25c-2.33,0-4.21-1.89-4.21-4.21h0c0-2.33,1.89-4.21,4.21-4.21h20.25c2.33,0,4.21,1.89,4.21,4.21h0c0,2.33-1.89,4.21-4.21,4.21Z"/>
        <path class="cls-12" d="M308.3,76.05h-21.86c-2.33,0-4.21-1.89-4.21-4.21h0c0-2.33,1.89-4.21,4.21-4.21h21.86c2.33,0,4.21,1.89,4.21,4.21h0c0,2.33-1.89,4.21-4.21,4.21Z"/>
        <path class="cls-6" d="M297.98,74.88l-61.61,68.18h137.97l-61.61-68.18c-3.95-4.37-10.81-4.37-14.76,0Z"/>
        <path class="cls-2" d="M233.31,56.54l-61.61,68.18h137.97l-61.61-68.18c-3.95-4.37-10.81-4.37-14.76,0Z"/>
        <path class="cls-12" d="M244.47,26.47h-20.25c-2.33,0-4.21-1.89-4.21-4.21h0c0-2.33,1.89-4.21,4.21-4.21h20.25c2.33,0,4.21,1.89,4.21,4.21h0c0,2.33-1.89,4.21-4.21,4.21Z"/>
        <path class="cls-12" d="M256.3,34.71h-21.86c-2.33,0-4.21-1.89-4.21-4.21h0c0-2.33,1.89-4.21,4.21-4.21h21.86c2.33,0,4.21,1.89,4.21,4.21h0c0,2.33-1.89,4.21-4.21,4.21Z"/>
        <circle class="cls-12" cx="285.34" cy="35.71" r="15.33"/>
      </g>
      <path class="cls-16" d="M229.11,114.2c-9.69,0-17.57-7.88-17.57-17.56V18.06c0-9.68,7.88-17.56,17.57-17.56h78.57c9.68,0,17.56,7.88,17.56,17.56v78.58c0,9.68-7.88,17.56-17.56,17.56h-78.57Z"/>
    </g>
    <g>
      <path class="cls-11" d="M130.17,171.38c-6.34,0-11.5-5.16-11.5-11.5s5.16-11.5,11.5-11.5,11.5,5.16,11.5,11.5-5.16,11.5-11.5,11.5ZM130.17,151.38c-4.69,0-8.5,3.81-8.5,8.5s3.81,8.5,8.5,8.5,8.5-3.81,8.5-8.5-3.81-8.5-8.5-8.5Z"/>
      <path class="cls-11" d="M89.17,127.55c-3.12,0-5.67-2.54-5.67-5.67s2.54-5.67,5.67-5.67,5.67,2.54,5.67,5.67-2.54,5.67-5.67,5.67ZM89.17,117.69c-2.31,0-4.19,1.88-4.19,4.19s1.88,4.19,4.19,4.19,4.19-1.88,4.19-4.19-1.88-4.19-4.19-4.19Z"/>
      <path class="cls-11" d="M5.67,228.3c-3.12,0-5.67-2.54-5.67-5.67s2.54-5.67,5.67-5.67,5.67,2.54,5.67,5.67-2.54,5.67-5.67,5.67ZM5.67,218.44c-2.31,0-4.19,1.88-4.19,4.19s1.88,4.19,4.19,4.19,4.19-1.88,4.19-4.19-1.88-4.19-4.19-4.19Z"/>
      <path class="cls-11" d="M536.83,118.05c-3.49,0-6.33-2.84-6.33-6.33s2.84-6.33,6.33-6.33,6.33,2.84,6.33,6.33-2.84,6.33-6.33,6.33ZM536.83,107.03c-2.58,0-4.68,2.1-4.68,4.68s2.1,4.68,4.68,4.68,4.68-2.1,4.68-4.68-2.1-4.68-4.68-4.68Z"/>
      <path class="cls-11" d="M639.17,178.38c-3.49,0-6.33-2.84-6.33-6.33s2.84-6.33,6.33-6.33,6.33,2.84,6.33,6.33-2.84,6.33-6.33,6.33ZM639.17,167.36c-2.58,0-4.68,2.1-4.68,4.68s2.1,4.68,4.68,4.68,4.68-2.1,4.68-4.68-2.1-4.68-4.68-4.68Z"/>
      <path class="cls-11" d="M351.17,89.88c-6.34,0-11.5-5.16-11.5-11.5s5.16-11.5,11.5-11.5,11.5,5.16,11.5,11.5-5.16,11.5-11.5,11.5ZM351.17,69.88c-4.69,0-8.5,3.81-8.5,8.5s3.81,8.5,8.5,8.5,8.5-3.81,8.5-8.5-3.81-8.5-8.5-8.5Z"/>
      <path class="cls-11" d="M601,305.55c-6.34,0-11.5-5.16-11.5-11.5s5.16-11.5,11.5-11.5,11.5,5.16,11.5,11.5-5.16,11.5-11.5,11.5ZM601,285.55c-4.69,0-8.5,3.81-8.5,8.5s3.81,8.5,8.5,8.5,8.5-3.81,8.5-8.5-3.81-8.5-8.5-8.5Z"/>
      <path class="cls-11" d="M444.33,406.21c-4.87,0-8.83-3.96-8.83-8.83s3.96-8.83,8.83-8.83,8.83,3.96,8.83,8.83-3.96,8.83-8.83,8.83ZM444.33,390.85c-3.6,0-6.53,2.93-6.53,6.53s2.93,6.53,6.53,6.53,6.53-2.93,6.53-6.53-2.93-6.53-6.53-6.53Z"/>
      <path class="cls-11" d="M298.17,383.55c-3.12,0-5.67-2.54-5.67-5.67s2.54-5.67,5.67-5.67,5.67,2.54,5.67,5.67-2.54,5.67-5.67,5.67ZM298.17,373.69c-2.31,0-4.19,1.88-4.19,4.19s1.88,4.19,4.19,4.19,4.19-1.88,4.19-4.19-1.88-4.19-4.19-4.19Z"/>
      <path class="cls-11" d="M181.2,145.61h-10.07c-.87,0-1.66-.45-2.1-1.21-.44-.76-.44-1.66,0-2.42l5.04-8.72c.44-.76,1.22-1.21,2.1-1.21s1.66.45,2.1,1.21l5.04,8.72c.44.76.44,1.66,0,2.42-.44.76-1.22,1.21-2.1,1.21ZM176.17,134.01c-.1,0-.28.03-.39.23l-5.04,8.72c-.11.2-.05.37,0,.45.05.08.17.23.39.23h10.07c.23,0,.34-.14.39-.23.05-.08.11-.26,0-.45l-5.04-8.72c-.11-.2-.29-.23-.39-.23Z"/>
      <path class="cls-11" d="M421.54,137.94h-10.07c-.87,0-1.66-.45-2.1-1.21-.44-.76-.44-1.66,0-2.42l5.04-8.72c.44-.76,1.22-1.21,2.09-1.21s1.66.45,2.1,1.21l5.04,8.72c.44.76.44,1.66,0,2.42-.44.76-1.22,1.21-2.09,1.21ZM416.5,126.34c-.1,0-.28.03-.39.23l-5.04,8.72c-.11.2-.05.37,0,.45.05.08.17.23.39.23h10.07c.23,0,.34-.14.39-.23.05-.08.11-.26,0-.45l-5.04-8.72c-.11-.2-.29-.23-.39-.23Z"/>
      <path class="cls-11" d="M615.96,308.38h10.07c.87,0,1.66.45,2.09,1.21.44.76.44,1.66,0,2.42l-5.04,8.72c-.44.76-1.22,1.21-2.1,1.21s-1.66-.45-2.09-1.21l-5.04-8.72c-.44-.76-.44-1.66,0-2.42.44-.76,1.22-1.21,2.1-1.21ZM621,319.97c.1,0,.28-.03.39-.23l5.04-8.72c.11-.2.05-.37,0-.45-.05-.08-.17-.23-.39-.23h-10.07c-.23,0-.34.14-.39.23-.05.08-.11.26,0,.45l5.04,8.72c.11.2.29.23.39.23Z"/>
      <path class="cls-11" d="M140.88,412.27h-15.77c-1.37,0-2.6-.71-3.28-1.89-.68-1.19-.68-2.6,0-3.79l7.88-13.65c.68-1.19,1.91-1.89,3.28-1.89s2.6.71,3.28,1.89l7.88,13.65c.68,1.19.68,2.6,0,3.79-.68,1.19-1.91,1.89-3.28,1.89ZM133,394.12c-.15,0-.44.05-.61.36l-7.88,13.65c-.18.31-.08.58,0,.71.08.13.26.36.62.36h15.77c.36,0,.54-.22.61-.36.08-.13.18-.4,0-.71l-7.88-13.65c-.18-.31-.46-.36-.61-.36Z"/>
    </g>
    <g>
      <polygon class="cls-8" points="377.5 249.03 528.99 141.33 528.99 249.03 377.5 249.03"/>
      <path class="cls-1" d="M623.07,173.28v61.23c0,8.05-6.52,14.57-14.56,14.57h-78.58c-8.04,0-14.56-6.52-14.56-14.57v-78.57c0-8.05,6.52-14.57,14.56-14.57h61.23l24.08,24.08,7.83,7.83Z"/>
      <path class="cls-4" d="M623.07,173.28h-18.45c-7.43,0-13.45-6.02-13.45-13.45v-18.45l31.91,31.91Z"/>
      <path class="cls-10" d="M606.5,188.55h-71.67c-.83,0-1.5-.67-1.5-1.5s.67-1.5,1.5-1.5h71.67c.83,0,1.5.67,1.5,1.5s-.67,1.5-1.5,1.5Z"/>
      <path class="cls-10" d="M606.5,203.38h-71.67c-.83,0-1.5-.67-1.5-1.5s.67-1.5,1.5-1.5h71.67c.83,0,1.5.67,1.5,1.5s-.67,1.5-1.5,1.5Z"/>
      <path class="cls-10" d="M606.5,218.21h-71.67c-.83,0-1.5-.67-1.5-1.5s.67-1.5,1.5-1.5h71.67c.83,0,1.5.67,1.5,1.5s-.67,1.5-1.5,1.5Z"/>
    </g>
    <g>
      <polygon class="cls-9" points="258.58 262.96 150.88 370.66 150.88 262.96 258.58 262.96"/>
      <path class="cls-7" d="M166.55,277.43v27.28H58.85v-27.28c0-8.04,6.52-14.56,14.57-14.56h78.57c8.04,0,14.56,6.52,14.56,14.56Z"/>
      <path class="cls-13" d="M166.55,304.72v51.3c0,8.04-6.52,14.56-14.56,14.56h-78.57c-8.05,0-14.57-6.52-14.57-14.56v-51.3h107.7Z"/>
      <path class="cls-16" d="M73.42,373.58c-9.69,0-17.57-7.88-17.57-17.56v-78.58c0-9.68,7.88-17.56,17.57-17.56h78.57c9.68,0,17.56,7.88,17.56,17.56v78.58c0,9.68-7.88,17.56-17.56,17.56h-78.57Z"/>
      <circle class="cls-2" cx="112.7" cy="316.73" r="23.66"/>
      <circle class="cls-14" cx="112.7" cy="316.73" r="11.63"/>
    </g>
  </g>
</svg>