<?xml version="1.0" encoding="UTF-8"?>
<svg xmlns="http://www.w3.org/2000/svg" xmlns:xlink="http://www.w3.org/1999/xlink" viewBox="0 0 376.13 295.01">
  <defs>
    <style>
      .cls-1 {
        fill: url(#_Безымянный_градиент_3-2);
      }

      .cls-1, .cls-2, .cls-3, .cls-4, .cls-5, .cls-6, .cls-7, .cls-8, .cls-9, .cls-10, .cls-11, .cls-12, .cls-13, .cls-14, .cls-15, .cls-16, .cls-17, .cls-18, .cls-19, .cls-20, .cls-21, .cls-22, .cls-23, .cls-24, .cls-25, .cls-26, .cls-27, .cls-28, .cls-29, .cls-30, .cls-31, .cls-32, .cls-33, .cls-34, .cls-35, .cls-36, .cls-37, .cls-38, .cls-39, .cls-40, .cls-41, .cls-42, .cls-43, .cls-44, .cls-45, .cls-46, .cls-47, .cls-48, .cls-49 {
        stroke-width: 0px;
      }

      .cls-2 {
        fill: url(#_Безымянный_градиент_13);
        opacity: .6;
      }

      .cls-2, .cls-50 {
        mix-blend-mode: lighten;
      }

      .cls-3 {
        fill: url(#_Безымянный_градиент_24-11);
      }

      .cls-4 {
        fill: #42e8e0;
      }

      .cls-5 {
        fill: url(#_Безымянный_градиент_24-12);
      }

      .cls-6 {
        fill: url(#_Безымянный_градиент_3);
      }

      .cls-51 {
        opacity: .51;
      }

      .cls-7 {
        fill: url(#_Безымянный_градиент_24-10);
      }

      .cls-8 {
        fill: url(#_Безымянный_градиент_3-16);
      }

      .cls-9 {
        fill: url(#_Безымянный_градиент_3-13);
      }

      .cls-52 {
        clip-path: url(#clippath-2);
      }

      .cls-10 {
        fill: url(#_Безымянный_градиент_3-11);
      }

      .cls-53 {
        isolation: isolate;
      }

      .cls-11 {
        fill: url(#_Безымянный_градиент_3-3);
      }

      .cls-12 {
        fill: url(#_Безымянный_градиент_24-5);
      }

      .cls-13 {
        fill: url(#_Безымянный_градиент_3-6);
      }

      .cls-14 {
        fill: url(#_Безымянный_градиент_3-24);
      }

      .cls-15 {
        fill: url(#_Безымянный_градиент_25);
      }

      .cls-16 {
        fill: url(#_Безымянный_градиент_24);
      }

      .cls-17 {
        fill: none;
      }

      .cls-18 {
        fill: url(#_Безымянный_градиент_24-4);
      }

      .cls-19 {
        fill: url(#_Безымянный_градиент_3-5);
      }

      .cls-54 {
        clip-path: url(#clippath-1);
      }

      .cls-55 {
        opacity: .11;
      }

      .cls-20 {
        fill: #9198db;
      }

      .cls-21 {
        fill: url(#_Безымянный_градиент_24-3);
      }

      .cls-22 {
        fill: url(#_Безымянный_градиент_24-6);
      }

      .cls-23 {
        fill: url(#_Безымянный_градиент_3-21);
      }

      .cls-24 {
        fill: url(#_Безымянный_градиент_24-2);
      }

      .cls-25 {
        fill: url(#_Безымянный_градиент_3-4);
      }

      .cls-26 {
        fill: url(#_Безымянный_градиент_3-18);
      }

      .cls-27 {
        fill: url(#_Безымянный_градиент_3-8);
      }

      .cls-28 {
        fill: url(#_Безымянный_градиент_3-20);
      }

      .cls-29 {
        fill: url(#_Безымянный_градиент_3-7);
      }

      .cls-30 {
        fill: url(#_Безымянный_градиент_24-8);
      }

      .cls-31 {
        fill: url(#_Безымянный_градиент_3-17);
      }

      .cls-32 {
        fill: url(#_Безымянный_градиент_3-9);
      }

      .cls-33 {
        fill: url(#_Безымянный_градиент_3-22);
      }

      .cls-56 {
        clip-path: url(#clippath);
      }

      .cls-34 {
        fill: url(#_Безымянный_градиент_3-14);
      }

      .cls-35 {
        fill: url(#_Безымянный_градиент_3-12);
      }

      .cls-36 {
        fill: #2842a2;
      }

      .cls-37 {
        fill: url(#_Безымянный_градиент_3-15);
      }

      .cls-38 {
        fill: url(#_Безымянный_градиент_24-14);
      }

      .cls-39 {
        fill: url(#_Безымянный_градиент_24-7);
      }

      .cls-40 {
        fill: #fff;
      }

      .cls-41 {
        fill: url(#_Безымянный_градиент_3-25);
      }

      .cls-42 {
        fill: url(#_Безымянный_градиент_3-23);
      }

      .cls-43 {
        fill: url(#_Безымянный_градиент_3-10);
      }

      .cls-44 {
        fill: #453c9e;
      }

      .cls-45 {
        fill: url(#_Безымянный_градиент_3-19);
      }

      .cls-46 {
        fill: url(#_Безымянный_градиент_24-9);
      }

      .cls-47 {
        fill: #24126a;
      }

      .cls-48 {
        fill: #adb1f2;
      }

      .cls-49 {
        fill: url(#_Безымянный_градиент_24-13);
      }
    </style>
    <linearGradient id="_Безымянный_градиент_3" data-name="Безымянный градиент 3" x1="-324.14" y1="65.94" x2="-212.88" y2="65.94" gradientTransform="translate(51.98) rotate(-180) scale(1 -1)" gradientUnits="userSpaceOnUse">
      <stop offset="0" stop-color="#c0bff6"/>
      <stop offset=".29" stop-color="#c4c3f6"/>
      <stop offset=".64" stop-color="#d2d2f9"/>
      <stop offset="1" stop-color="#e9e9fd"/>
    </linearGradient>
    <linearGradient id="_Безымянный_градиент_24" data-name="Безымянный градиент 24" x1="-324.14" y1="94.48" x2="-305.04" y2="94.48" gradientTransform="translate(51.98) rotate(-180) scale(1 -1)" gradientUnits="userSpaceOnUse">
      <stop offset="0" stop-color="#5761d7"/>
      <stop offset=".18" stop-color="#5b65d8"/>
      <stop offset=".39" stop-color="#6a72de"/>
      <stop offset=".61" stop-color="#8188e8"/>
      <stop offset=".85" stop-color="#a2a6f5"/>
      <stop offset="1" stop-color="#bcbeff"/>
    </linearGradient>
    <linearGradient id="_Безымянный_градиент_24-2" data-name="Безымянный градиент 24" x1="-309.24" y1="126.56" x2="-152.09" y2="126.56" xlink:href="#_Безымянный_градиент_24"/>
    <linearGradient id="_Безымянный_градиент_3-2" data-name="Безымянный градиент 3" x1="-256.43" y1="121.32" x2="-99.2" y2="121.32" xlink:href="#_Безымянный_градиент_3"/>
    <linearGradient id="_Безымянный_градиент_3-3" data-name="Безымянный градиент 3" x1="-229.81" y1="130.24" x2="-189.56" y2="130.24" xlink:href="#_Безымянный_градиент_3"/>
    <clipPath id="clippath">
      <polygon id="SVGID" class="cls-17" points="278.29 5.67 371.13 59.28 359.62 127.15 266.83 73.58 278.29 5.67"/>
    </clipPath>
    <linearGradient id="_Безымянный_градиент_3-4" data-name="Безымянный градиент 3" x1="-316.5" y1="86.47" x2="-159.27" y2="86.47" xlink:href="#_Безымянный_градиент_3"/>
    <linearGradient id="_Безымянный_градиент_3-5" data-name="Безымянный градиент 3" x1="-326.85" y1="74.93" x2="-286.61" y2="74.93" xlink:href="#_Безымянный_градиент_3"/>
    <linearGradient id="_Безымянный_градиент_3-6" data-name="Безымянный градиент 3" x1="2278.8" y1="67.85" x2="2390.07" y2="67.85" gradientTransform="translate(-2278.69)" xlink:href="#_Безымянный_градиент_3"/>
    <linearGradient id="_Безымянный_градиент_24-3" data-name="Безымянный градиент 24" x1="2278.8" y1="96.39" x2="2297.9" y2="96.39" gradientTransform="translate(-2278.69)" xlink:href="#_Безымянный_градиент_24"/>
    <linearGradient id="_Безымянный_градиент_24-4" data-name="Безымянный градиент 24" x1="2293.71" y1="128.47" x2="2450.85" y2="128.47" gradientTransform="translate(-2278.69)" xlink:href="#_Безымянный_градиент_24"/>
    <linearGradient id="_Безымянный_градиент_3-7" data-name="Безымянный градиент 3" x1="2346.51" y1="123.23" x2="2503.74" y2="123.23" gradientTransform="translate(-2278.69)" xlink:href="#_Безымянный_градиент_3"/>
    <linearGradient id="_Безымянный_градиент_3-8" data-name="Безымянный градиент 3" x1="2373.13" y1="132.15" x2="2413.38" y2="132.15" gradientTransform="translate(-2278.69)" xlink:href="#_Безымянный_градиент_3"/>
    <clipPath id="clippath-1">
      <polygon id="SVGID-2" data-name="SVGID" class="cls-17" points="97.95 7.58 5.11 61.19 16.62 129.06 109.4 75.49 97.95 7.58"/>
    </clipPath>
    <linearGradient id="_Безымянный_градиент_3-9" data-name="Безымянный градиент 3" x1="2286.44" y1="88.38" x2="2443.67" y2="88.38" gradientTransform="translate(-2278.69)" xlink:href="#_Безымянный_градиент_3"/>
    <linearGradient id="_Безымянный_градиент_3-10" data-name="Безымянный градиент 3" x1="2276.09" y1="76.84" x2="2316.33" y2="76.84" gradientTransform="translate(-2278.69)" xlink:href="#_Безымянный_градиент_3"/>
    <linearGradient id="_Безымянный_градиент_24-5" data-name="Безымянный градиент 24" x1="2952.67" y1="241.48" x2="3107.09" y2="241.48" gradientTransform="translate(-2743.73)" xlink:href="#_Безымянный_градиент_24"/>
    <linearGradient id="_Безымянный_градиент_3-11" data-name="Безымянный градиент 3" x1="3004.56" y1="236.33" x2="3159.06" y2="236.33" gradientTransform="translate(-2743.73)" xlink:href="#_Безымянный_градиент_3"/>
    <linearGradient id="_Безымянный_градиент_3-12" data-name="Безымянный градиент 3" x1="2994.53" y1="224.44" x2="3034.08" y2="224.44" gradientTransform="translate(-2743.73)" xlink:href="#_Безымянный_градиент_3"/>
    <linearGradient id="_Безымянный_градиент_3-13" data-name="Безымянный градиент 3" x1="2997.63" y1="217.32" x2="3106.96" y2="217.32" gradientTransform="translate(-2743.73)" xlink:href="#_Безымянный_градиент_3"/>
    <linearGradient id="_Безымянный_градиент_24-6" data-name="Безымянный градиент 24" x1="2997.63" y1="245.35" x2="3016.4" y2="245.35" gradientTransform="translate(-2743.73)" xlink:href="#_Безымянный_градиент_24"/>
    <linearGradient id="_Безымянный_градиент_3-14" data-name="Безымянный градиент 3" x1="2278.69" y1="67.63" x2="2389.96" y2="67.63" gradientTransform="translate(-2278.69)" xlink:href="#_Безымянный_градиент_3"/>
    <linearGradient id="_Безымянный_градиент_24-7" data-name="Безымянный градиент 24" x1="2278.69" y1="96.16" x2="2297.8" y2="96.16" gradientTransform="translate(-2278.69)" xlink:href="#_Безымянный_градиент_24"/>
    <linearGradient id="_Безымянный_градиент_24-8" data-name="Безымянный градиент 24" x1="2293.6" y1="128.24" x2="2450.74" y2="128.24" gradientTransform="translate(-2278.69)" xlink:href="#_Безымянный_градиент_24"/>
    <linearGradient id="_Безымянный_градиент_3-15" data-name="Безымянный градиент 3" x1="2346.4" y1="123" x2="2503.63" y2="123" gradientTransform="translate(-2278.69)" xlink:href="#_Безымянный_градиент_3"/>
    <linearGradient id="_Безымянный_градиент_3-16" data-name="Безымянный градиент 3" x1="2373.03" y1="131.93" x2="2413.27" y2="131.93" gradientTransform="translate(-2278.69)" xlink:href="#_Безымянный_градиент_3"/>
    <clipPath id="clippath-2">
      <polygon id="SVGID-3" data-name="SVGID" class="cls-17" points="97.84 7.36 5 60.96 16.51 128.83 109.29 75.27 97.84 7.36"/>
    </clipPath>
    <linearGradient id="_Безымянный_градиент_3-17" data-name="Безымянный градиент 3" x1="2286.33" y1="88.15" x2="2443.56" y2="88.15" gradientTransform="translate(-2278.69)" xlink:href="#_Безымянный_градиент_3"/>
    <linearGradient id="_Безымянный_градиент_3-18" data-name="Безымянный градиент 3" x1="2275.98" y1="76.61" x2="2316.23" y2="76.61" gradientTransform="translate(-2278.69)" xlink:href="#_Безымянный_градиент_3"/>
    <linearGradient id="_Безымянный_градиент_24-9" data-name="Безымянный градиент 24" x1="2951.96" y1="241.39" x2="3106.38" y2="241.39" gradientTransform="translate(-2743.73)" xlink:href="#_Безымянный_градиент_24"/>
    <linearGradient id="_Безымянный_градиент_3-19" data-name="Безымянный градиент 3" x1="3003.85" y1="236.24" x2="3158.34" y2="236.24" gradientTransform="translate(-2743.73)" xlink:href="#_Безымянный_градиент_3"/>
    <linearGradient id="_Безымянный_градиент_3-20" data-name="Безымянный градиент 3" x1="2993.82" y1="224.35" x2="3033.37" y2="224.35" gradientTransform="translate(-2743.73)" xlink:href="#_Безымянный_градиент_3"/>
    <linearGradient id="_Безымянный_градиент_3-21" data-name="Безымянный градиент 3" x1="2996.91" y1="217.23" x2="3106.25" y2="217.23" gradientTransform="translate(-2743.73)" xlink:href="#_Безымянный_градиент_3"/>
    <linearGradient id="_Безымянный_градиент_24-10" data-name="Безымянный градиент 24" x1="2996.92" y1="245.27" x2="3015.69" y2="245.27" gradientTransform="translate(-2743.73)" xlink:href="#_Безымянный_градиент_24"/>
    <linearGradient id="_Безымянный_градиент_13" data-name="Безымянный градиент 13" x1="118.84" y1="190.82" x2="248.5" y2="190.82" gradientUnits="userSpaceOnUse">
      <stop offset="0" stop-color="#42e8e0"/>
      <stop offset=".02" stop-color="#40ddd9"/>
      <stop offset=".11" stop-color="#36adbc"/>
      <stop offset=".22" stop-color="#2e82a2"/>
      <stop offset=".32" stop-color="#275e8c"/>
      <stop offset=".43" stop-color="#21407a"/>
      <stop offset=".55" stop-color="#1d296c"/>
      <stop offset=".67" stop-color="#1a1962"/>
      <stop offset=".81" stop-color="#18105c"/>
      <stop offset="1" stop-color="#180d5b"/>
    </linearGradient>
    <linearGradient id="_Безымянный_градиент_24-11" data-name="Безымянный градиент 24" x1="1718.8" y1="598.63" x2="1839.44" y2="598.63" gradientTransform="translate(-1369.76 349.18) rotate(-30) skewX(-30)" xlink:href="#_Безымянный_градиент_24"/>
    <radialGradient id="_Безымянный_градиент_25" data-name="Безымянный градиент 25" cx="1637.12" cy="149.66" fx="1590.12" fy="133.08" r="49.84" gradientTransform="translate(-1493.85)" gradientUnits="userSpaceOnUse">
      <stop offset="0" stop-color="#2b237c"/>
      <stop offset="1" stop-color="#180d5b"/>
    </radialGradient>
    <linearGradient id="_Безымянный_градиент_24-12" data-name="Безымянный градиент 24" x1="1612.57" y1="165.31" x2="1732.65" y2="165.31" gradientTransform="translate(-1493.85)" xlink:href="#_Безымянный_градиент_24"/>
    <linearGradient id="_Безымянный_градиент_3-22" data-name="Безымянный градиент 3" x1="1742.19" y1="618.93" x2="1862.82" y2="618.93" gradientTransform="translate(-1369.76 349.18) rotate(-30) skewX(-30)" xlink:href="#_Безымянный_градиент_3"/>
    <linearGradient id="_Безымянный_градиент_24-13" data-name="Безымянный градиент 24" x1="344.16" y1="242.68" x2="498.57" y2="242.68" gradientTransform="translate(517.02) rotate(-180) scale(1 -1)" xlink:href="#_Безымянный_градиент_24"/>
    <linearGradient id="_Безымянный_градиент_3-23" data-name="Безымянный градиент 3" x1="396.04" y1="237.53" x2="550.54" y2="237.53" gradientTransform="translate(517.02) rotate(-180) scale(1 -1)" xlink:href="#_Безымянный_градиент_3"/>
    <linearGradient id="_Безымянный_градиент_3-24" data-name="Безымянный градиент 3" x1="386.02" y1="225.64" x2="425.56" y2="225.64" gradientTransform="translate(517.02) rotate(-180) scale(1 -1)" xlink:href="#_Безымянный_градиент_3"/>
    <linearGradient id="_Безымянный_градиент_3-25" data-name="Безымянный градиент 3" x1="389.11" y1="218.52" x2="498.44" y2="218.52" gradientTransform="translate(517.02) rotate(-180) scale(1 -1)" xlink:href="#_Безымянный_градиент_3"/>
    <linearGradient id="_Безымянный_градиент_24-14" data-name="Безымянный градиент 24" x1="389.11" y1="246.56" x2="407.88" y2="246.56" gradientTransform="translate(517.02) rotate(-180) scale(1 -1)" xlink:href="#_Безымянный_градиент_24"/>
  </defs>
  <g class="cls-53">
    <g id="_Слой_2" data-name="Слой 2">
      <g id="_Слой_1-2" data-name="Слой 1">
        <g>
          <g>
            <g class="cls-50">
              <path class="cls-4" d="M301.42,179.8c-1.53,0-3.03-.4-4.35-1.16h0l-86.51-49.95c-.78-.45-1.25-1.26-1.25-2.17s.47-1.72,1.25-2.17l54.17-31.28c.15-.09.34-.09.49,0l90.6,52.31c.79.45,1.25,1.27,1.25,2.17s-.47,1.72-1.25,2.17l-50.07,28.91c-1.31.76-2.82,1.16-4.34,1.16ZM297.57,177.78c2.33,1.34,5.37,1.34,7.7,0l50.07-28.91c.48-.28.76-.77.76-1.32s-.28-1.04-.76-1.32l-90.36-52.17-.17.1-53.75,31.03c-.47.27-.76.77-.76,1.32s.28,1.04.76,1.32l86.51,49.95Z"/>
            </g>
            <g>
              <g>
                <g>
                  <path class="cls-6" d="M264.88,72.86L276.93,1.36l-.97-.41,1.46-.83h0c.28-.18.68-.17,1.12.09l96.32,55.61c.79.46,1.39,1.63,1.25,2.45l-12.15,72.07c-.06.38-.25.62-.51.73h0s-1.42.82-1.42.82l-.24-1.33.08.02-95.73-55.27c-.79-.46-1.39-1.63-1.25-2.45Z"/>
                  <path class="cls-16" d="M374.32,57.77l1.58-.7c.18.41.26.83.2,1.19l-12.15,72.07c-.06.38-.25.62-.51.73h0s-1.43.82-1.43.82l-.24-1.33.08.02-4.84-2.8,17.3-70.02Z"/>
                  <path class="cls-47" d="M264.62,76.18l96.32,55.61c.74.43,1.38.18,1.51-.59l12.15-72.07c.14-.82-.46-1.99-1.25-2.45L277.03,1.07c-.74-.43-1.38-.18-1.51.59l-12.15,72.07c-.14.82.46,1.99,1.25,2.45Z"/>
                  <g class="cls-51">
                    <polygon class="cls-44" points="278.29 5.67 371.13 59.28 359.62 127.15 266.83 73.58 278.29 5.67"/>
                  </g>
                </g>
                <g>
                  <path class="cls-24" d="M204.07,110.3l5.26,2.75,52.71-30.43c.88-.51,2.42-.45,3.44.14l90.91,52.48c.87-.49,4.84-2.39,4.84-2.39l-1.92,5.01s0,0,0,0c-.08.22-.25.43-.54.6l-55.51,32.05c-.88.51-2.42.45-3.44-.14l-93.03-53.71c-.42-.24-.67-.53-.78-.83h0s-1.91-5.52-1.91-5.52Z"/>
                  <path class="cls-1" d="M204.89,111.16l95.34,55.04c1.04.6,2.62.67,3.53.15l56.89-32.85c.9-.52.79-1.43-.25-2.04l-95.34-55.04c-1.04-.6-2.62-.67-3.53-.15l-56.89,32.85c-.9.52-.79,1.43.25,2.04Z"/>
                  <path class="cls-40" d="M204.89,110.61l95.34,55.04c1.04.6,2.62.67,3.53.15l56.89-32.85c.3-.17.47-.39.55-.62.14.43-.03.86-.55,1.16l-56.89,32.85c-.9.52-2.48.46-3.53-.15l-95.34-55.04c-.7-.41-.97-.95-.81-1.42.1.31.37.62.81.87Z"/>
                  <path class="cls-36" d="M328.98,154.3v-1.05c0-.1-.06-.14-.13-.1l-3.69,2.13c-.07.04-.13.16-.13.26v1.05c0,.1.06.14.13.1l3.69-2.13c.07-.04.13-.16.13-.26Z"/>
                  <path class="cls-36" d="M323.47,157.48v-1.05c0-.1-.06-.14-.13-.1l-3.69,2.13c-.07.04-.13.16-.13.26v1.05c0,.1.06.14.13.1l3.69-2.13c.07-.04.13-.16.13-.26Z"/>
                  <path class="cls-48" d="M345.81,130.43l-79.23-45.74c-.53-.31-1.18-.3-1.71,0l-28.21,16.32c-.41.23-.4.82,0,1.05l79.19,45.72c.53.3,1.18.3,1.71,0l28.25-16.3c.41-.23.41-.82,0-1.05Z"/>
                  <path class="cls-20" d="M345.81,131.48l-.28.16-78.94-45.58c-.53-.31-1.18-.3-1.71,0l-27.93,16.16-.28-.16c-.41-.23-.41-.82,0-1.05l28.21-16.32c.53-.31,1.18-.31,1.71,0l79.23,45.74c.41.23.41.82,0,1.05Z"/>
                  <g>
                    <polygon class="cls-47" points="262.75 88.82 331.57 128.56 334.63 126.79 265.81 87.06 262.75 88.82"/>
                    <polygon class="cls-47" points="255.25 93.15 319.8 130.42 322.86 128.66 258.31 91.39 255.25 93.15"/>
                    <polygon class="cls-47" points="250.36 95.98 326.36 139.85 329.42 138.09 253.42 94.21 250.36 95.98"/>
                    <polygon class="cls-47" points="245.47 98.8 321.47 142.68 324.53 140.91 248.53 97.03 245.47 98.8"/>
                    <polygon class="cls-47" points="240.59 101.62 316.59 145.5 319.65 143.73 243.65 99.85 240.59 101.62"/>
                    <polygon class="cls-47" points="335.73 130.96 338.79 132.72 341.85 130.96 338.79 129.19 335.73 130.96"/>
                    <polygon class="cls-47" points="324.93 133.39 331.28 137.05 334.34 135.29 327.99 131.62 324.93 133.39"/>
                  </g>
                  <path class="cls-11" d="M263.53,141.5l-21.36-12.33c-.83-.48-.83-1.26,0-1.75l14.61-8.43c.83-.48,2.19-.48,3.02,0l21.36,12.33c.83.48.84,1.26,0,1.75l-14.61,8.43c-.83.48-2.19.48-3.02,0Z"/>
                  <path class="cls-20" d="M281.16,132.03l-21.36-12.33c-.84-.48-2.19-.48-3.02,0l-14.61,8.43c-.26.15-.43.33-.52.52-.22-.42-.05-.9.52-1.23l14.61-8.43c.83-.48,2.19-.48,3.02,0l21.36,12.33c.58.33.75.81.52,1.23-.1-.19-.27-.37-.52-.52Z"/>
                </g>
              </g>
              <g class="cls-55">
                <g class="cls-56">
                  <g>
                    <path class="cls-25" d="M264.96,76.31l95.34,55.04c1.04.6,2.62.67,3.53.15l56.89-32.85c.9-.52.79-1.43-.25-2.04l-95.34-55.04c-1.04-.6-2.62-.67-3.53-.15l-56.89,32.85c-.9.52-.79,1.43.25,2.04Z"/>
                    <path class="cls-19" d="M360.58,86.18l-21.36-12.33c-.83-.48-.83-1.26,0-1.75l14.61-8.43c.83-.48,2.19-.48,3.02,0l21.36,12.33c.84.48.84,1.26,0,1.75l-14.61,8.43c-.83.48-2.19.48-3.02,0Z"/>
                    <path class="cls-20" d="M378.21,76.72l-21.36-12.33c-.83-.48-2.19-.48-3.02,0l-14.61,8.43c-.26.15-.43.33-.52.52-.22-.42-.05-.9.52-1.23l14.61-8.43c.83-.48,2.19-.48,3.02,0l21.36,12.33c.58.33.75.81.52,1.23-.1-.19-.27-.37-.52-.52Z"/>
                    <g>
                      <path class="cls-48" d="M387.6,105.46l-79.23-45.74c-.53-.31-1.18-.3-1.71,0l-28.21,16.32c-.41.23-.4.82,0,1.05l79.19,45.72c.53.3,1.18.3,1.71,0l28.25-16.3c.41-.23.41-.82,0-1.05Z"/>
                      <path class="cls-20" d="M387.6,106.51l-.28.16-78.94-45.58c-.53-.3-1.18-.3-1.71,0l-27.93,16.16-.28-.16c-.41-.23-.41-.82,0-1.05l28.21-16.32c.53-.31,1.18-.31,1.71,0l79.23,45.74c.41.23.41.82,0,1.05Z"/>
                      <g>
                        <polygon class="cls-47" points="285.84 74.93 354.86 114.77 352.13 116.35 283.11 76.5 285.84 74.93"/>
                        <polygon class="cls-47" points="293.11 70.73 358.71 108.6 355.98 110.18 290.38 72.31 293.11 70.73"/>
                        <polygon class="cls-47" points="363.61 111.43 369.74 114.97 367.01 116.55 360.88 113.01 363.61 111.43"/>
                        <polygon class="cls-47" points="358.2 116.7 362.47 119.17 359.73 120.74 355.47 118.28 358.2 116.7"/>
                        <polygon class="cls-47" points="297.67 68.1 374.3 112.34 371.56 113.92 294.93 69.67 297.67 68.1"/>
                        <polygon class="cls-47" points="302.22 65.46 378.85 109.71 376.12 111.28 299.49 67.04 302.22 65.46"/>
                        <polygon class="cls-47" points="306.78 62.83 383.41 107.08 380.68 108.65 304.05 64.41 306.78 62.83"/>
                      </g>
                    </g>
                  </g>
                </g>
              </g>
            </g>
            <g>
              <polygon class="cls-4" points="299.13 30.76 306.64 35.11 306.86 33.8 299.35 29.46 299.13 30.76"/>
              <polygon class="cls-4" points="307.85 35.8 311.94 38.16 312.16 36.86 308.07 34.49 307.85 35.8"/>
              <polygon class="cls-4" points="318.31 41.84 321.27 43.55 321.49 42.25 318.53 40.53 318.31 41.84"/>
              <polygon class="cls-4" points="316.15 40.59 317.16 41.18 317.38 39.87 316.37 39.29 316.15 40.59"/>
              <polygon class="cls-4" points="313.17 38.87 315 39.93 315.22 38.62 313.39 37.56 313.17 38.87"/>
              <polygon class="cls-4" points="305.07 40.74 308.04 42.45 308.26 41.15 305.29 39.44 305.07 40.74"/>
              <polygon class="cls-4" points="298.12 36.72 303.93 40.08 304.15 38.77 298.34 35.42 298.12 36.72"/>
              <g>
                <polygon class="cls-4" points="306.44 57.86 312.24 61.22 312.46 59.91 306.66 56.56 306.44 57.86"/>
                <polygon class="cls-4" points="303.46 56.14 305.3 57.2 305.52 55.89 303.68 54.83 303.46 56.14"/>
              </g>
              <polygon class="cls-4" points="307.41 51.89 313.21 55.25 313.43 53.94 307.63 50.59 307.41 51.89"/>
              <polygon class="cls-4" points="304.43 50.17 306.26 51.23 306.48 49.93 304.65 48.87 304.43 50.17"/>
              <polygon class="cls-4" points="302.16 83.61 291.23 77.3 291.01 78.6 301.94 84.92 302.16 83.61"/>
              <polygon class="cls-4" points="306.01 85.84 303.31 84.28 303.09 85.58 305.79 87.14 306.01 85.84"/>
              <polygon class="cls-4" points="325.22 87.11 314.29 80.79 314.07 82.09 325 88.41 325.22 87.11"/>
              <polygon class="cls-4" points="329.07 89.33 326.37 87.77 326.15 89.07 328.85 90.64 329.07 89.33"/>
              <polygon class="cls-4" points="294.69 76.03 291.73 74.32 291.51 75.62 294.47 77.33 294.69 76.03"/>
              <polygon class="cls-4" points="312.71 79.89 309.75 78.18 309.53 79.49 312.49 81.2 312.71 79.89"/>
              <polygon class="cls-4" points="301.64 80.04 295.84 76.69 295.62 78 301.42 81.35 301.64 80.04"/>
              <polygon class="cls-4" points="304.63 81.77 302.79 80.71 302.57 82.01 304.41 83.07 304.63 81.77"/>
              <polygon class="cls-4" points="311.63 85.81 305.83 82.46 305.61 83.76 311.41 87.12 311.63 85.81"/>
              <polygon class="cls-4" points="314.62 87.54 312.78 86.47 312.56 87.78 314.4 88.84 314.62 87.54"/>
              <polygon class="cls-4" points="312.21 82.87 309.25 81.16 309.03 82.47 311.99 84.18 312.21 82.87"/>
              <polygon class="cls-4" points="319.16 86.89 313.35 83.54 313.13 84.84 318.94 88.19 319.16 86.89"/>
              <polygon class="cls-4" points="322.14 88.62 320.3 87.55 320.08 88.86 321.92 89.92 322.14 88.62"/>
              <polygon class="cls-4" points="298.3 74.84 292.24 71.34 292.02 72.64 298.07 76.14 298.3 74.84"/>
              <polygon class="cls-4" points="303.82 78.03 299.44 75.5 299.22 76.81 303.6 79.34 303.82 78.03"/>
              <polygon class="cls-4" points="307.93 80.41 304.97 78.7 304.75 80 307.71 81.71 307.93 80.41"/>
              <polygon class="cls-4" points="336.65 93.7 330.59 90.2 330.37 91.5 336.43 95.01 336.65 93.7"/>
              <polygon class="cls-4" points="342.18 96.9 337.8 94.37 337.58 95.67 341.96 98.2 342.18 96.9"/>
              <polygon class="cls-4" points="346.29 99.27 343.33 97.56 343.11 98.87 346.07 100.58 346.29 99.27"/>
              <polygon class="cls-4" points="334.29 54.33 340.35 57.83 340.57 56.53 334.51 53.03 334.29 54.33"/>
              <polygon class="cls-4" points="328.76 51.14 333.14 53.67 333.36 52.37 328.98 49.83 328.76 51.14"/>
              <polygon class="cls-4" points="324.65 48.76 327.61 50.47 327.83 49.17 324.87 47.46 324.65 48.76"/>
              <polygon class="cls-4" points="332.27 49.89 338.33 53.39 338.55 52.09 332.5 48.58 332.27 49.89"/>
              <polygon class="cls-4" points="326.75 46.69 331.13 49.22 331.35 47.92 326.97 45.39 326.75 46.69"/>
              <polygon class="cls-4" points="322.64 44.32 325.6 46.03 325.82 44.72 322.86 43.01 322.64 44.32"/>
              <polygon class="cls-4" points="307.81 55.4 309.86 56.58 310.08 55.28 308.03 54.09 307.81 55.4"/>
              <polygon class="cls-4" points="303.96 53.17 306.66 54.73 306.88 53.43 304.18 51.87 303.96 53.17"/>
              <polygon class="cls-4" points="298.84 71.88 292.78 68.38 292.56 69.68 298.62 73.18 298.84 71.88"/>
              <polygon class="cls-4" points="304.37 75.07 299.98 72.54 299.76 73.84 304.15 76.38 304.37 75.07"/>
              <polygon class="cls-4" points="308.48 77.45 305.51 75.74 305.29 77.04 308.26 78.75 308.48 77.45"/>
              <polygon class="cls-4" points="295.33 66.58 293.28 65.4 293.06 66.7 295.11 67.88 295.33 66.58"/>
              <polygon class="cls-4" points="299.18 68.81 296.48 67.24 296.26 68.55 298.96 70.11 299.18 68.81"/>
              <polygon class="cls-4" points="304.69 71.99 300.33 69.47 300.11 70.77 304.46 73.29 304.69 71.99"/>
              <polygon class="cls-4" points="310.59 47.18 312.64 48.37 312.86 47.06 310.81 45.88 310.59 47.18"/>
              <polygon class="cls-4" points="306.74 44.96 309.45 46.52 309.67 45.22 306.96 43.65 306.74 44.96"/>
              <polygon class="cls-4" points="301.24 41.77 305.59 44.29 305.81 42.99 301.46 40.47 301.24 41.77"/>
              <polygon class="cls-4" points="313.71 52.02 318.07 54.54 318.29 53.23 313.93 50.72 313.71 52.02"/>
              <polygon class="cls-4" points="306.58 48.13 312.46 51.53 312.68 50.23 306.8 46.83 306.58 48.13"/>
              <polygon class="cls-4" points="303.6 46.41 305.44 47.47 305.66 46.17 303.82 45.11 303.6 46.41"/>
              <polygon class="cls-4" points="300.73 44.75 302.57 45.82 302.79 44.51 300.95 43.45 300.73 44.75"/>
              <g>
                <polygon class="cls-4" points="301.13 61.59 306.93 64.94 307.15 63.64 301.35 60.29 301.13 61.59"/>
                <polygon class="cls-4" points="298.14 59.86 299.98 60.93 300.2 59.62 298.36 58.56 298.14 59.86"/>
                <polygon class="cls-4" points="301.53 65.09 303.57 66.28 303.79 64.97 301.75 63.79 301.53 65.09"/>
                <polygon class="cls-4" points="308.75 62.71 310.8 63.89 311.02 62.58 308.97 61.4 308.75 62.71"/>
                <polygon class="cls-4" points="311.67 64.39 316.58 67.23 316.8 65.92 311.89 63.09 311.67 64.39"/>
                <polygon class="cls-4" points="317.45 67.73 320.37 69.42 320.59 68.11 317.67 66.42 317.45 67.73"/>
                <polygon class="cls-4" points="297.67 62.87 300.38 64.43 300.6 63.13 297.89 61.56 297.67 62.87"/>
                <g>
                  <polygon class="cls-4" points="297.42 65.93 299.47 67.11 299.69 65.81 297.64 64.62 297.42 65.93"/>
                  <polygon class="cls-4" points="293.57 63.7 296.27 65.26 296.49 63.96 293.79 62.4 293.57 63.7"/>
                </g>
                <polygon class="cls-4" points="305.78 60.99 307.62 62.05 307.84 60.75 306 59.69 305.78 60.99"/>
                <polygon class="cls-4" points="302.92 59.34 304.76 60.4 304.98 59.09 303.14 58.03 302.92 59.34"/>
              </g>
              <polygon class="cls-4" points="317.03 44.36 323.3 47.98 323.52 46.68 317.25 43.06 317.03 44.36"/>
              <polygon class="cls-4" points="310.01 40.3 315.89 43.7 316.11 42.39 310.23 39 310.01 40.3"/>
              <polygon class="cls-4" points="307.03 38.58 308.86 39.64 309.08 38.34 307.25 37.27 307.03 38.58"/>
              <polygon class="cls-4" points="304.16 36.92 306 37.98 306.22 36.68 304.38 35.62 304.16 36.92"/>
              <polygon class="cls-4" points="302.6 36.02 298.63 33.73 298.85 32.42 302.82 34.71 302.6 36.02"/>
            </g>
          </g>
          <g>
            <g>
              <g>
                <g>
                  <path class="cls-13" d="M111.36,74.77L99.3,3.27l.97-.41-1.46-.83h0c-.28-.18-.68-.17-1.12.09L1.38,57.73c-.79.46-1.39,1.63-1.25,2.45l12.15,72.07c.06.38.25.62.51.73h0s1.42.82,1.42.82l.24-1.33-.08.02,95.73-55.27c.79-.46,1.39-1.63,1.25-2.45Z"/>
                  <path class="cls-21" d="M1.92,59.68l-1.58-.7c-.18.41-.26.83-.2,1.19l12.15,72.07c.06.38.25.62.51.73h0s1.42.82,1.42.82l.24-1.33-.08.02,4.84-2.8L1.92,59.68Z"/>
                  <path class="cls-47" d="M111.62,78.09L15.3,133.7c-.74.43-1.38.18-1.51-.59L1.64,61.04c-.14-.82.46-1.99,1.25-2.45L99.21,2.98c.74-.43,1.38-.18,1.51.59l12.15,72.07c.14.82-.46,1.99-1.25,2.45Z"/>
                  <g class="cls-51">
                    <polygon class="cls-44" points="97.95 7.58 5.11 61.19 16.62 129.06 109.4 75.49 97.95 7.58"/>
                  </g>
                </g>
                <g>
                  <path class="cls-18" d="M172.16,112.21l-5.26,2.75-52.71-30.43c-.88-.51-2.42-.45-3.44.14l-90.91,52.48c-.87-.49-4.84-2.39-4.84-2.39l1.92,5.01s0,0,0,0c.08.22.25.43.54.6l55.51,32.05c.88.51,2.42.45,3.44-.14l93.03-53.71c.42-.24.67-.53.78-.83h0s1.91-5.52,1.91-5.52Z"/>
                  <path class="cls-29" d="M171.35,113.07l-95.34,55.04c-1.04.6-2.62.67-3.53.15l-56.89-32.85c-.9-.52-.79-1.43.25-2.04l95.34-55.04c1.04-.6,2.62-.67,3.53-.15l56.89,32.85c.9.52.79,1.43-.25,2.04Z"/>
                  <path class="cls-40" d="M171.35,112.52l-95.34,55.04c-1.04.6-2.62.67-3.53.15l-56.89-32.85c-.3-.17-.47-.39-.55-.62-.14.43.03.86.55,1.16l56.89,32.85c.9.52,2.48.46,3.53-.15l95.34-55.04c.7-.41.97-.95.81-1.42-.1.31-.37.62-.81.87Z"/>
                  <path class="cls-36" d="M47.25,156.21v-1.05c0-.1.06-.14.13-.1l3.69,2.13c.07.04.13.16.13.26v1.05c0,.1-.06.14-.13.1l-3.69-2.13c-.07-.04-.13-.16-.13-.26Z"/>
                  <path class="cls-36" d="M52.77,159.39v-1.05c0-.1.06-.14.13-.1l3.69,2.13c.07.04.13.16.13.26v1.05c0,.1-.06.14-.13.1l-3.69-2.13c-.07-.04-.13-.16-.13-.26Z"/>
                  <path class="cls-48" d="M30.42,132.34l79.23-45.74c.53-.3,1.18-.3,1.71,0l28.21,16.32c.41.23.4.82,0,1.05l-79.19,45.72c-.53.3-1.18.3-1.71,0l-28.25-16.3c-.41-.23-.41-.82,0-1.05Z"/>
                  <path class="cls-20" d="M30.42,133.39l.28.16,78.94-45.58c.53-.3,1.18-.3,1.71,0l27.93,16.16.28-.16c.41-.23.41-.82,0-1.05l-28.21-16.32c-.53-.31-1.18-.31-1.71,0l-79.23,45.74c-.41.23-.41.82,0,1.05Z"/>
                  <g>
                    <polygon class="cls-47" points="113.49 90.73 44.67 130.47 41.61 128.7 110.43 88.97 113.49 90.73"/>
                    <polygon class="cls-47" points="120.99 95.06 56.44 132.33 53.38 130.57 117.93 93.3 120.99 95.06"/>
                    <polygon class="cls-47" points="125.87 97.89 49.87 141.76 46.81 140 122.81 96.12 125.87 97.89"/>
                    <polygon class="cls-47" points="130.76 100.71 54.76 144.58 51.7 142.82 127.7 98.94 130.76 100.71"/>
                    <polygon class="cls-47" points="135.65 103.53 59.65 147.41 56.59 145.64 132.59 101.76 135.65 103.53"/>
                    <polygon class="cls-47" points="40.51 132.87 37.45 134.63 34.39 132.87 37.45 131.1 40.51 132.87"/>
                    <polygon class="cls-47" points="51.3 135.3 44.95 138.96 41.89 137.2 48.24 133.53 51.3 135.3"/>
                  </g>
                  <path class="cls-27" d="M112.7,143.41l21.36-12.33c.83-.48.84-1.26,0-1.75l-14.61-8.43c-.83-.48-2.19-.48-3.02,0l-21.36,12.33c-.83.48-.83,1.26,0,1.75l14.61,8.43c.83.48,2.19.48,3.02,0Z"/>
                  <path class="cls-20" d="M95.07,133.94l21.36-12.33c.84-.48,2.19-.48,3.02,0l14.61,8.43c.26.15.43.33.52.52.22-.42.05-.9-.52-1.23l-14.61-8.43c-.83-.48-2.19-.48-3.02,0l-21.36,12.33c-.58.33-.75.81-.52,1.23.1-.19.27-.37.52-.52Z"/>
                </g>
              </g>
              <g class="cls-55">
                <g class="cls-54">
                  <g>
                    <path class="cls-32" d="M111.28,78.22L15.94,133.27c-1.04.6-2.62.67-3.53.15l-56.89-32.85c-.9-.52-.79-1.43.25-2.04L51.11,43.49c1.04-.6,2.62-.67,3.53-.15l56.89,32.85c.9.52.79,1.43-.25,2.04Z"/>
                    <path class="cls-43" d="M15.66,88.09l21.36-12.33c.84-.48.84-1.26,0-1.75l-14.61-8.43c-.84-.48-2.19-.48-3.02,0L-1.98,77.91c-.84.48-.84,1.26,0,1.75l14.61,8.43c.83.48,2.19.48,3.02,0Z"/>
                    <path class="cls-20" d="M-1.98,78.63l21.36-12.33c.84-.48,2.19-.48,3.02,0l14.61,8.43c.26.15.43.33.52.52.22-.42.05-.9-.52-1.23l-14.61-8.43c-.83-.48-2.19-.48-3.02,0L-1.98,77.91c-.58.33-.75.81-.52,1.23.1-.19.27-.37.52-.52Z"/>
                    <g>
                      <path class="cls-48" d="M-11.37,107.37l79.23-45.74c.53-.3,1.18-.3,1.71,0l28.21,16.32c.41.23.4.82,0,1.05L18.59,124.72c-.53.3-1.18.3-1.71,0l-28.25-16.3c-.41-.23-.41-.82,0-1.05Z"/>
                      <path class="cls-20" d="M-11.37,108.42l.28.16,78.94-45.58c.53-.3,1.18-.3,1.71,0l27.93,16.16.28-.16c.41-.23.41-.82,0-1.05l-28.21-16.32c-.53-.31-1.18-.31-1.71,0L-11.37,107.37c-.41.23-.41.82,0,1.05Z"/>
                      <g>
                        <polygon class="cls-47" points="90.4 76.84 21.38 116.68 24.11 118.26 93.13 78.41 90.4 76.84"/>
                        <polygon class="cls-47" points="83.12 72.64 17.52 110.51 20.25 112.09 85.86 74.21 83.12 72.64"/>
                        <polygon class="cls-47" points="12.62 113.34 6.49 116.88 9.23 118.46 15.36 114.92 12.62 113.34"/>
                        <polygon class="cls-47" points="18.03 118.61 13.77 121.08 16.5 122.65 20.77 120.19 18.03 118.61"/>
                        <polygon class="cls-47" points="78.57 70.01 1.94 114.25 4.67 115.83 81.3 71.58 78.57 70.01"/>
                        <polygon class="cls-47" points="74.01 67.37 -2.62 111.62 .12 113.19 76.74 68.95 74.01 67.37"/>
                        <polygon class="cls-47" points="69.45 64.74 -7.18 108.99 -4.44 110.56 72.19 66.32 69.45 64.74"/>
                      </g>
                    </g>
                  </g>
                </g>
              </g>
            </g>
            <g>
              <polygon class="cls-4" points="40.07 103.18 47.58 98.84 47.8 100.15 40.29 104.49 40.07 103.18"/>
              <polygon class="cls-4" points="48.78 98.15 52.88 95.78 53.1 97.09 49 99.45 48.78 98.15"/>
              <polygon class="cls-4" points="59.25 92.11 62.21 90.4 62.43 91.7 59.47 93.41 59.25 92.11"/>
              <polygon class="cls-4" points="57.09 93.36 58.1 92.77 58.32 94.07 57.31 94.66 57.09 93.36"/>
              <polygon class="cls-4" points="54.1 95.08 55.94 94.02 56.16 95.32 54.32 96.38 54.1 95.08"/>
              <polygon class="cls-4" points="46.01 93.21 48.97 91.49 49.19 92.8 46.23 94.51 46.01 93.21"/>
              <polygon class="cls-4" points="39.06 97.22 44.86 93.87 45.08 95.17 39.28 98.53 39.06 97.22"/>
              <g>
                <polygon class="cls-4" points="47.38 76.08 53.18 72.73 53.4 74.03 47.6 77.39 47.38 76.08"/>
                <polygon class="cls-4" points="44.39 77.81 46.23 76.75 46.45 78.05 44.61 79.11 44.39 77.81"/>
              </g>
              <polygon class="cls-4" points="48.35 82.05 54.15 78.7 54.37 80 48.57 83.36 48.35 82.05"/>
              <polygon class="cls-4" points="45.36 83.78 47.2 82.71 47.42 84.02 45.58 85.08 45.36 83.78"/>
              <polygon class="cls-4" points="43.09 50.33 32.16 56.65 31.94 55.35 42.87 49.03 43.09 50.33"/>
              <polygon class="cls-4" points="46.95 48.11 44.24 49.67 44.02 48.37 46.73 46.8 46.95 48.11"/>
              <polygon class="cls-4" points="66.15 46.84 55.22 53.16 55 51.85 65.93 45.53 66.15 46.84"/>
              <polygon class="cls-4" points="70.01 44.61 67.3 46.18 67.08 44.87 69.79 43.31 70.01 44.61"/>
              <polygon class="cls-4" points="35.63 57.92 32.67 59.63 32.45 58.33 35.41 56.61 35.63 57.92"/>
              <polygon class="cls-4" points="53.65 54.05 50.68 55.76 50.46 54.46 53.43 52.75 53.65 54.05"/>
              <polygon class="cls-4" points="42.58 53.9 36.78 57.25 36.56 55.95 42.36 52.6 42.58 53.9"/>
              <polygon class="cls-4" points="45.56 52.18 43.73 53.24 43.51 51.93 45.34 50.87 45.56 52.18"/>
              <polygon class="cls-4" points="52.57 48.14 46.76 51.49 46.54 50.18 52.35 46.83 52.57 48.14"/>
              <polygon class="cls-4" points="55.55 46.41 53.71 47.47 53.49 46.17 55.33 45.11 55.55 46.41"/>
              <polygon class="cls-4" points="53.14 51.07 50.18 52.78 49.96 51.48 52.92 49.77 53.14 51.07"/>
              <polygon class="cls-4" points="60.09 47.06 54.29 50.41 54.07 49.1 59.87 45.75 60.09 47.06"/>
              <polygon class="cls-4" points="63.08 45.33 61.24 46.39 61.02 45.09 62.86 44.03 63.08 45.33"/>
              <polygon class="cls-4" points="39.23 59.11 33.17 62.61 32.95 61.3 39.01 57.8 39.23 59.11"/>
              <polygon class="cls-4" points="44.76 55.91 40.38 58.44 40.16 57.14 44.54 54.61 44.76 55.91"/>
              <polygon class="cls-4" points="48.87 53.54 45.91 55.25 45.69 53.94 48.65 52.23 48.87 53.54"/>
              <polygon class="cls-4" points="77.59 40.24 71.53 43.75 71.31 42.44 77.37 38.94 77.59 40.24"/>
              <polygon class="cls-4" points="83.12 37.05 78.73 39.58 78.51 38.28 82.9 35.74 83.12 37.05"/>
              <polygon class="cls-4" points="87.22 34.67 84.26 36.39 84.04 35.08 87 33.37 87.22 34.67"/>
              <polygon class="cls-4" points="75.22 79.61 81.28 76.11 81.5 77.42 75.44 80.92 75.22 79.61"/>
              <polygon class="cls-4" points="69.69 82.81 74.07 80.28 74.29 81.58 69.91 84.11 69.69 82.81"/>
              <polygon class="cls-4" points="65.58 85.18 68.54 83.47 68.76 84.78 65.8 86.49 65.58 85.18"/>
              <polygon class="cls-4" points="73.21 84.06 79.27 80.56 79.49 81.86 73.43 85.36 73.21 84.06"/>
              <polygon class="cls-4" points="67.68 87.25 72.06 84.72 72.28 86.03 67.9 88.56 67.68 87.25"/>
              <polygon class="cls-4" points="63.57 89.63 66.53 87.92 66.75 89.22 63.79 90.93 63.57 89.63"/>
              <polygon class="cls-4" points="48.74 78.55 50.79 77.36 51.01 78.67 48.97 79.85 48.74 78.55"/>
              <polygon class="cls-4" points="44.89 80.77 47.6 79.21 47.82 80.52 45.11 82.08 44.89 80.77"/>
              <polygon class="cls-4" points="39.77 62.07 33.71 65.57 33.49 64.27 39.55 60.76 39.77 62.07"/>
              <polygon class="cls-4" points="45.3 58.87 40.92 61.41 40.7 60.1 45.08 57.57 45.3 58.87"/>
              <polygon class="cls-4" points="49.41 56.5 46.45 58.21 46.23 56.91 49.19 55.19 49.41 56.5"/>
              <polygon class="cls-4" points="36.26 67.37 34.22 68.55 34 67.25 36.04 66.06 36.26 67.37"/>
              <polygon class="cls-4" points="40.11 65.14 37.41 66.7 37.19 65.4 39.89 63.84 40.11 65.14"/>
              <polygon class="cls-4" points="45.62 61.96 41.26 64.48 41.04 63.17 45.4 60.65 45.62 61.96"/>
              <polygon class="cls-4" points="51.53 86.76 53.58 85.58 53.8 86.88 51.75 88.07 51.53 86.76"/>
              <polygon class="cls-4" points="47.68 88.99 50.38 87.43 50.6 88.73 47.9 90.29 47.68 88.99"/>
              <polygon class="cls-4" points="42.17 92.17 46.53 89.65 46.75 90.96 42.39 93.48 42.17 92.17"/>
              <polygon class="cls-4" points="54.65 81.93 59 79.41 59.22 80.71 54.87 83.23 54.65 81.93"/>
              <polygon class="cls-4" points="47.52 85.81 53.39 82.42 53.61 83.72 47.74 87.12 47.52 85.81"/>
              <polygon class="cls-4" points="44.53 87.54 46.37 86.47 46.59 87.78 44.75 88.84 44.53 87.54"/>
              <polygon class="cls-4" points="41.67 89.19 43.51 88.13 43.73 89.43 41.89 90.5 41.67 89.19"/>
              <g>
                <polygon class="cls-4" points="42.06 72.36 47.86 69 48.08 70.31 42.28 73.66 42.06 72.36"/>
                <polygon class="cls-4" points="39.08 74.08 40.91 73.02 41.13 74.32 39.3 75.39 39.08 74.08"/>
                <polygon class="cls-4" points="42.46 68.85 44.51 67.67 44.73 68.97 42.68 70.16 42.46 68.85"/>
                <polygon class="cls-4" points="49.69 71.24 51.73 70.06 51.95 71.36 49.91 72.54 49.69 71.24"/>
                <polygon class="cls-4" points="52.6 69.56 57.51 66.72 57.73 68.02 52.82 70.86 52.6 69.56"/>
                <polygon class="cls-4" points="58.39 66.22 61.31 64.53 61.53 65.84 58.61 67.52 58.39 66.22"/>
                <polygon class="cls-4" points="38.61 71.08 41.31 69.52 41.53 70.82 38.83 72.38 38.61 71.08"/>
                <g>
                  <polygon class="cls-4" points="38.35 68.02 40.4 66.84 40.62 68.14 38.57 69.32 38.35 68.02"/>
                  <polygon class="cls-4" points="34.5 70.24 37.21 68.68 37.43 69.99 34.72 71.55 34.5 70.24"/>
                </g>
                <polygon class="cls-4" points="46.72 72.95 48.55 71.89 48.77 73.2 46.94 74.26 46.72 72.95"/>
                <polygon class="cls-4" points="43.85 74.61 45.69 73.55 45.91 74.85 44.07 75.91 43.85 74.61"/>
              </g>
              <polygon class="cls-4" points="57.97 89.58 64.24 85.96 64.46 87.27 58.19 90.89 57.97 89.58"/>
              <polygon class="cls-4" points="50.95 93.64 56.82 90.25 57.04 91.55 51.17 94.95 50.95 93.64"/>
              <polygon class="cls-4" points="47.96 95.37 49.8 94.31 50.02 95.61 48.18 96.67 47.96 95.37"/>
              <polygon class="cls-4" points="45.1 97.02 46.93 95.96 47.15 97.27 45.32 98.33 45.1 97.02"/>
              <polygon class="cls-4" points="43.53 97.93 39.56 100.22 39.79 101.52 43.75 99.23 43.53 97.93"/>
            </g>
          </g>
          <g>
            <g>
              <path class="cls-12" d="M363.36,225.5l-5.17,2.7-51.79-29.9c-.87-.5-2.38-.44-3.38.14l-89.33,51.57c-.85-.48-4.75-2.35-4.75-2.35l1.89,4.93s0,0,0,0c.08.22.25.42.53.59l54.55,31.49c.87.5,2.38.44,3.38-.14l91.41-52.77c.41-.24.66-.52.77-.82h0s1.88-5.42,1.88-5.42Z"/>
              <path class="cls-10" d="M362.56,226.35l-93.68,54.09c-1.03.59-2.58.66-3.46.14l-55.9-32.28c-.89-.51-.78-1.41.25-2l93.68-54.09c1.03-.59,2.58-.66,3.46-.14l55.9,32.28c.89.51.78,1.41-.25,2Z"/>
              <path class="cls-40" d="M362.56,225.81l-93.68,54.09c-1.03.59-2.58.66-3.46.14l-55.9-32.28c-.29-.17-.46-.38-.54-.6-.14.42.03.85.54,1.14l55.9,32.28c.89.51,2.44.45,3.46-.14l93.68-54.09c.69-.4.96-.93.79-1.4-.1.3-.36.61-.79.86Z"/>
              <path class="cls-36" d="M240.62,268.74v-1.03c0-.1.06-.14.13-.1l3.62,2.09c.07.04.13.16.13.25v1.03c0,.1-.06.14-.13.1l-3.62-2.09c-.07-.04-.13-.16-.13-.25Z"/>
              <path class="cls-36" d="M246.04,271.87v-1.03c0-.1.06-.14.13-.1l3.62,2.09c.07.04.13.16.13.25v1.03c0,.1-.06.14-.13.1l-3.62-2.09c-.07-.04-.13-.16-.13-.25Z"/>
              <g>
                <path class="cls-48" d="M241.03,255.65l77.85-44.95c.52-.3,1.16-.3,1.68,0l27.72,16.04c.4.23.4.81,0,1.03l-77.81,44.93c-.52.3-1.16.3-1.68,0l-27.76-16.02c-.4-.23-.4-.81,0-1.04Z"/>
                <path class="cls-20" d="M241.03,256.68l.28.16,77.57-44.79c.52-.3,1.16-.3,1.68,0l27.44,15.88.28-.16c.4-.23.4-.8,0-1.03l-27.72-16.04c-.52-.3-1.16-.3-1.68,0l-77.85,44.95c-.4.23-.4.81,0,1.04Z"/>
                <g>
                  <polygon class="cls-47" points="322.65 214.76 250.94 256.16 247.39 254.74 319.64 213.03 322.65 214.76"/>
                  <polygon class="cls-47" points="330.02 219.02 266.59 255.64 263.59 253.9 327.02 217.28 330.02 219.02"/>
                  <polygon class="cls-47" points="334.82 221.79 260.14 264.91 257.14 263.17 331.82 220.05 334.82 221.79"/>
                  <polygon class="cls-47" points="339.62 224.56 264.94 267.68 261.94 265.94 336.62 222.83 339.62 224.56"/>
                  <polygon class="cls-47" points="344.43 227.33 269.75 270.45 266.74 268.71 341.42 225.6 344.43 227.33"/>
                  <polygon class="cls-47" points="250.94 256.16 247.93 257.9 244.93 256.16 247.93 254.43 250.94 256.16"/>
                  <polygon class="cls-47" points="270.24 253.53 255.31 262.16 252.3 260.42 267.34 251.73 270.24 253.53"/>
                </g>
              </g>
              <g>
                <path class="cls-35" d="M268.75,235.5l20.99-12.12c.82-.47.82-1.24,0-1.72l-14.35-8.29c-.82-.47-2.15-.47-2.97,0l-20.99,12.12c-.82.47-.82,1.24,0,1.72l14.35,8.29c.82.47,2.15.47,2.97,0Z"/>
                <path class="cls-20" d="M251.42,226.2l20.99-12.12c.82-.47,2.15-.47,2.97,0l14.35,8.29c.25.15.42.32.52.51.22-.41.05-.88-.52-1.21l-14.35-8.29c-.82-.47-2.15-.47-2.97,0l-20.99,12.12c-.57.33-.73.79-.52,1.21.1-.18.26-.36.52-.51Z"/>
              </g>
            </g>
            <g>
              <path class="cls-9" d="M363.21,224.12l-11.84-70.26.95-.4-1.43-.82h0c-.28-.18-.67-.17-1.1.08l-94.64,54.64c-.78.45-1.37,1.6-1.23,2.4l11.94,70.82c.06.37.24.61.5.72h0s1.4.81,1.4.81l.24-1.31-.08.02,94.07-54.31c.78-.45,1.37-1.6,1.23-2.4Z"/>
              <path class="cls-22" d="M255.67,209.28l-1.56-.69c-.17.4-.26.82-.2,1.17l11.94,70.82c.06.37.24.61.5.72h0s1.4.81,1.4.81l.24-1.31-.08.02,4.76-2.75-17-68.8Z"/>
              <path class="cls-44" d="M363.47,227.37l-94.64,54.64c-.73.42-1.36.18-1.48-.58l-11.94-70.82c-.14-.8.45-1.96,1.23-2.4l94.64-54.64c.73-.42,1.36-.18,1.48.58l11.94,70.82c.14.8-.45,1.96-1.23,2.4Z"/>
            </g>
          </g>
          <g>
            <g class="cls-50">
              <path class="cls-4" d="M74.7,181.48c-1.53,0-3.03-.4-4.34-1.16l-50.07-28.91c-.78-.45-1.25-1.27-1.25-2.17s.47-1.72,1.25-2.17l90.6-52.31c.15-.09.34-.09.49,0l.42.24,53.75,31.03c.78.45,1.25,1.26,1.25,2.17s-.47,1.72-1.25,2.17l-86.51,49.95c-1.32.76-2.82,1.16-4.34,1.16ZM111.14,95.76l-90.36,52.17c-.48.28-.76.77-.76,1.32s.28,1.04.76,1.32l50.07,28.91c2.33,1.34,5.37,1.34,7.7,0l86.51-49.95c.48-.27.76-.77.76-1.32s-.28-1.04-.76-1.32l-53.93-31.13Z"/>
            </g>
            <g>
              <g>
                <g>
                  <path class="cls-34" d="M111.25,74.55L99.2,3.05l.97-.41-1.46-.83h0c-.28-.18-.68-.17-1.12.09L1.27,57.5c-.79.46-1.39,1.63-1.25,2.45l12.15,72.07c.06.38.25.62.51.73h0s1.42.82,1.42.82l.24-1.33-.08.02,95.73-55.27c.79-.46,1.39-1.63,1.25-2.45Z"/>
                  <path class="cls-39" d="M1.81,59.45l-1.58-.7c-.18.41-.26.83-.2,1.19l12.15,72.07c.06.38.25.62.51.73h0s1.42.82,1.42.82l.24-1.33-.08.02,4.84-2.8L1.81,59.45Z"/>
                  <path class="cls-47" d="M111.51,77.86L15.19,133.47c-.74.43-1.38.18-1.51-.59L1.53,60.81c-.14-.82.46-1.99,1.25-2.45L99.1,2.76c.74-.43,1.38-.18,1.51.59l12.15,72.07c.14.82-.46,1.99-1.25,2.45Z"/>
                  <g class="cls-51">
                    <polygon class="cls-44" points="97.84 7.36 5 60.96 16.51 128.83 109.29 75.27 97.84 7.36"/>
                  </g>
                </g>
                <g>
                  <path class="cls-30" d="M172.05,111.98l-5.26,2.75-52.71-30.43c-.88-.51-2.42-.45-3.44.14l-90.91,52.48c-.87-.49-4.84-2.39-4.84-2.39l1.92,5.01s0,0,0,0c.08.22.25.43.54.6l55.51,32.05c.88.51,2.42.45,3.44-.14l93.03-53.71c.42-.24.67-.53.78-.83h0s1.91-5.52,1.91-5.52Z"/>
                  <path class="cls-37" d="M171.24,112.85l-95.34,55.04c-1.04.6-2.62.67-3.53.15l-56.89-32.85c-.9-.52-.79-1.43.25-2.04l95.34-55.04c1.04-.6,2.62-.67,3.53-.15l56.89,32.85c.9.52.79,1.43-.25,2.04Z"/>
                  <path class="cls-40" d="M171.24,112.3l-95.34,55.04c-1.04.6-2.62.67-3.53.15l-56.89-32.85c-.3-.17-.47-.39-.55-.61-.14.43.03.86.55,1.16l56.89,32.85c.9.52,2.48.46,3.53-.15l95.34-55.04c.7-.41.97-.95.81-1.42-.1.31-.37.62-.81.87Z"/>
                  <path class="cls-36" d="M47.15,155.98v-1.05c0-.1.06-.14.13-.1l3.69,2.13c.07.04.13.16.13.26v1.05c0,.1-.06.14-.13.1l-3.69-2.13c-.07-.04-.13-.16-.13-.26Z"/>
                  <path class="cls-36" d="M52.66,159.17v-1.05c0-.1.06-.14.13-.1l3.69,2.13c.07.04.13.16.13.26v1.05c0,.1-.06.14-.13.1l-3.69-2.13c-.07-.04-.13-.16-.13-.26Z"/>
                  <path class="cls-48" d="M30.32,132.11l79.23-45.74c.53-.31,1.18-.3,1.71,0l28.21,16.32c.41.23.4.82,0,1.05l-79.19,45.72c-.53.3-1.18.3-1.71,0l-28.25-16.3c-.41-.23-.41-.82,0-1.05Z"/>
                  <path class="cls-20" d="M30.32,133.17l.28.16,78.94-45.58c.53-.31,1.18-.3,1.71,0l27.93,16.16.28-.16c.41-.23.41-.82,0-1.05l-28.21-16.32c-.53-.31-1.18-.31-1.71,0l-79.23,45.74c-.41.23-.41.82,0,1.05Z"/>
                  <g>
                    <polygon class="cls-47" points="113.38 90.51 44.56 130.24 41.5 128.47 110.32 88.74 113.38 90.51"/>
                    <polygon class="cls-47" points="120.88 94.84 56.33 132.1 53.27 130.34 117.82 93.07 120.88 94.84"/>
                    <polygon class="cls-47" points="125.77 97.66 49.77 141.54 46.71 139.77 122.71 95.89 125.77 97.66"/>
                    <polygon class="cls-47" points="130.65 100.48 54.65 144.36 51.59 142.59 127.59 98.71 130.65 100.48"/>
                    <polygon class="cls-47" points="135.54 103.3 59.54 147.18 56.48 145.41 132.48 101.53 135.54 103.3"/>
                    <polygon class="cls-47" points="40.4 132.64 37.34 134.41 34.28 132.64 37.34 130.87 40.4 132.64"/>
                    <polygon class="cls-47" points="51.19 135.07 44.84 138.74 41.78 136.97 48.13 133.3 51.19 135.07"/>
                  </g>
                  <path class="cls-8" d="M112.59,143.18l21.36-12.33c.83-.48.83-1.26,0-1.75l-14.61-8.43c-.83-.48-2.19-.48-3.02,0l-21.36,12.33c-.83.48-.83,1.26,0,1.75l14.61,8.43c.83.48,2.19.48,3.02,0Z"/>
                  <path class="cls-20" d="M94.96,133.72l21.36-12.33c.84-.48,2.19-.48,3.02,0l14.61,8.43c.26.15.43.33.52.52.22-.42.05-.9-.52-1.23l-14.61-8.43c-.83-.48-2.19-.48-3.02,0l-21.36,12.33c-.58.33-.75.81-.52,1.23.1-.19.27-.37.52-.52Z"/>
                </g>
              </g>
              <g class="cls-55">
                <g class="cls-52">
                  <g>
                    <path class="cls-31" d="M111.17,78L15.83,133.04c-1.04.6-2.62.67-3.53.15l-56.89-32.85c-.9-.52-.79-1.43.25-2.04L51.01,43.26c1.04-.6,2.62-.67,3.53-.15l56.89,32.85c.9.52.79,1.43-.25,2.04Z"/>
                    <path class="cls-26" d="M15.55,87.86l21.36-12.33c.84-.48.84-1.26,0-1.75l-14.61-8.43c-.84-.48-2.19-.48-3.02,0l-21.36,12.33c-.84.48-.84,1.26,0,1.75l14.61,8.43c.84.48,2.19.48,3.02,0Z"/>
                    <path class="cls-20" d="M-2.08,78.4l21.36-12.33c.83-.48,2.19-.48,3.02,0l14.61,8.43c.26.15.43.33.52.52.22-.42.05-.9-.52-1.23l-14.61-8.43c-.83-.48-2.19-.48-3.02,0l-21.36,12.33c-.58.33-.75.81-.52,1.23.1-.19.27-.37.52-.52Z"/>
                    <g>
                      <path class="cls-48" d="M-11.47,107.14l79.23-45.74c.53-.31,1.18-.3,1.71,0l28.21,16.32c.41.23.4.82,0,1.05L18.48,124.49c-.53.3-1.18.3-1.71,0l-28.25-16.3c-.41-.23-.41-.82,0-1.05Z"/>
                      <path class="cls-20" d="M-11.47,108.19l.28.16,78.94-45.58c.53-.3,1.18-.3,1.71,0l27.93,16.16.28-.16c.41-.23.41-.82,0-1.05l-28.21-16.32c-.53-.31-1.18-.31-1.71,0L-11.47,107.14c-.41.23-.41.82,0,1.05Z"/>
                      <g>
                        <polygon class="cls-47" points="90.29 76.61 21.27 116.46 24 118.04 93.02 78.19 90.29 76.61"/>
                        <polygon class="cls-47" points="83.02 72.41 17.41 110.29 20.15 111.86 85.75 73.99 83.02 72.41"/>
                        <polygon class="cls-47" points="12.51 113.11 6.39 116.65 9.12 118.23 15.25 114.69 12.51 113.11"/>
                        <polygon class="cls-47" points="17.93 118.39 13.66 120.85 16.39 122.43 20.66 119.96 17.93 118.39"/>
                        <polygon class="cls-47" points="78.46 69.78 1.83 114.02 4.56 115.6 81.19 71.36 78.46 69.78"/>
                        <polygon class="cls-47" points="73.9 67.15 -2.73 111.39 0 112.97 76.64 68.73 73.9 67.15"/>
                        <polygon class="cls-47" points="69.35 64.52 -7.28 108.76 -4.55 110.34 72.08 66.1 69.35 64.52"/>
                      </g>
                    </g>
                  </g>
                </g>
              </g>
            </g>
            <g>
              <polygon class="cls-4" points="39.96 102.96 47.47 98.61 47.69 99.92 40.18 104.26 39.96 102.96"/>
              <polygon class="cls-4" points="48.68 97.92 52.77 95.56 52.99 96.86 48.9 99.23 48.68 97.92"/>
              <polygon class="cls-4" points="59.14 91.88 62.1 90.17 62.32 91.47 59.36 93.18 59.14 91.88"/>
              <polygon class="cls-4" points="56.98 93.13 57.99 92.54 58.21 93.85 57.2 94.43 56.98 93.13"/>
              <polygon class="cls-4" points="53.99 94.85 55.83 93.79 56.05 95.1 54.21 96.16 53.99 94.85"/>
              <polygon class="cls-4" points="45.9 92.98 48.86 91.27 49.08 92.57 46.12 94.28 45.9 92.98"/>
              <polygon class="cls-4" points="38.95 97 44.75 93.64 44.97 94.95 39.17 98.3 38.95 97"/>
              <g>
                <polygon class="cls-4" points="47.27 75.86 53.07 72.5 53.29 73.81 47.49 77.16 47.27 75.86"/>
                <polygon class="cls-4" points="44.28 77.58 46.12 76.52 46.34 77.82 44.5 78.89 44.28 77.58"/>
              </g>
              <polygon class="cls-4" points="48.24 81.82 54.04 78.47 54.26 79.78 48.46 83.13 48.24 81.82"/>
              <polygon class="cls-4" points="45.25 83.55 47.09 82.49 47.31 83.79 45.47 84.85 45.25 83.55"/>
              <polygon class="cls-4" points="42.99 50.11 32.06 56.42 31.84 55.12 42.77 48.8 42.99 50.11"/>
              <polygon class="cls-4" points="46.84 47.88 44.13 49.44 43.91 48.14 46.62 46.58 46.84 47.88"/>
              <polygon class="cls-4" points="66.05 46.61 55.12 52.93 54.9 51.63 65.83 45.31 66.05 46.61"/>
              <polygon class="cls-4" points="69.9 44.39 67.19 45.95 66.97 44.64 69.68 43.08 69.9 44.39"/>
              <polygon class="cls-4" points="35.52 57.69 32.56 59.4 32.34 58.1 35.3 56.39 35.52 57.69"/>
              <polygon class="cls-4" points="53.54 53.83 50.58 55.54 50.36 54.23 53.32 52.52 53.54 53.83"/>
              <polygon class="cls-4" points="42.47 53.67 36.67 57.03 36.45 55.72 42.25 52.37 42.47 53.67"/>
              <polygon class="cls-4" points="45.46 51.95 43.62 53.01 43.4 51.71 45.24 50.64 45.46 51.95"/>
              <polygon class="cls-4" points="52.46 47.91 46.66 51.26 46.44 49.96 52.24 46.6 52.46 47.91"/>
              <polygon class="cls-4" points="55.44 46.18 53.61 47.25 53.39 45.94 55.22 44.88 55.44 46.18"/>
              <polygon class="cls-4" points="53.03 50.85 50.07 52.56 49.85 51.25 52.81 49.54 53.03 50.85"/>
              <polygon class="cls-4" points="59.98 46.83 54.18 50.18 53.96 48.88 59.76 45.52 59.98 46.83"/>
              <polygon class="cls-4" points="62.97 45.1 61.13 46.17 60.91 44.86 62.75 43.8 62.97 45.1"/>
              <polygon class="cls-4" points="39.12 58.88 33.06 62.38 32.84 61.08 38.9 57.58 39.12 58.88"/>
              <polygon class="cls-4" points="44.65 55.68 40.27 58.22 40.05 56.91 44.43 54.38 44.65 55.68"/>
              <polygon class="cls-4" points="48.76 53.31 45.8 55.02 45.58 53.72 48.54 52.01 48.76 53.31"/>
              <polygon class="cls-4" points="77.48 40.02 71.42 43.52 71.2 42.21 77.26 38.71 77.48 40.02"/>
              <polygon class="cls-4" points="83.01 36.82 78.63 39.35 78.41 38.05 82.79 35.52 83.01 36.82"/>
              <polygon class="cls-4" points="87.12 34.45 84.16 36.16 83.94 34.85 86.9 33.14 87.12 34.45"/>
              <polygon class="cls-4" points="75.11 79.39 81.17 75.88 81.39 77.19 75.33 80.69 75.11 79.39"/>
              <polygon class="cls-4" points="69.58 82.58 73.97 80.05 74.19 81.35 69.8 83.89 69.58 82.58"/>
              <polygon class="cls-4" points="65.47 84.96 68.44 83.25 68.66 84.55 65.7 86.26 65.47 84.96"/>
              <polygon class="cls-4" points="73.1 83.83 79.16 80.33 79.38 81.63 73.32 85.14 73.1 83.83"/>
              <polygon class="cls-4" points="67.57 87.03 71.95 84.49 72.17 85.8 67.79 88.33 67.57 87.03"/>
              <polygon class="cls-4" points="63.46 89.4 66.43 87.69 66.65 88.99 63.68 90.71 63.46 89.4"/>
              <polygon class="cls-4" points="48.64 78.32 50.68 77.14 50.9 78.44 48.86 79.62 48.64 78.32"/>
              <polygon class="cls-4" points="44.79 80.55 47.49 78.98 47.71 80.29 45.01 81.85 44.79 80.55"/>
              <polygon class="cls-4" points="39.66 61.84 33.61 65.34 33.39 64.04 39.44 60.54 39.66 61.84"/>
              <polygon class="cls-4" points="45.19 58.65 40.81 61.18 40.59 59.87 44.97 57.34 45.19 58.65"/>
              <polygon class="cls-4" points="49.3 56.27 46.34 57.98 46.12 56.68 49.08 54.97 49.3 56.27"/>
              <polygon class="cls-4" points="36.15 67.14 34.11 68.32 33.89 67.02 35.93 65.84 36.15 67.14"/>
              <polygon class="cls-4" points="40.01 64.91 37.3 66.48 37.08 65.17 39.79 63.61 40.01 64.91"/>
              <polygon class="cls-4" points="45.51 61.73 41.15 64.25 40.93 62.95 45.29 60.43 45.51 61.73"/>
              <polygon class="cls-4" points="51.42 86.54 53.47 85.35 53.69 86.66 51.64 87.84 51.42 86.54"/>
              <polygon class="cls-4" points="47.57 88.76 50.27 87.2 50.49 88.5 47.79 90.07 47.57 88.76"/>
              <polygon class="cls-4" points="42.06 91.94 46.42 89.43 46.64 90.73 42.28 93.25 42.06 91.94"/>
              <polygon class="cls-4" points="54.54 81.7 58.9 79.18 59.12 80.48 54.76 83 54.54 81.7"/>
              <polygon class="cls-4" points="47.41 85.58 53.28 82.19 53.5 83.49 47.63 86.89 47.41 85.58"/>
              <polygon class="cls-4" points="44.43 87.31 46.26 86.25 46.48 87.55 44.65 88.61 44.43 87.31"/>
              <polygon class="cls-4" points="41.56 88.97 43.4 87.9 43.62 89.21 41.78 90.27 41.56 88.97"/>
              <g>
                <polygon class="cls-4" points="41.95 72.13 47.76 68.78 47.98 70.08 42.17 73.43 41.95 72.13"/>
                <polygon class="cls-4" points="38.97 73.85 40.81 72.79 41.03 74.1 39.19 75.16 38.97 73.85"/>
                <polygon class="cls-4" points="42.35 68.63 44.4 67.44 44.62 68.75 42.57 69.93 42.35 68.63"/>
                <polygon class="cls-4" points="49.58 71.01 51.63 69.83 51.85 71.13 49.8 72.32 49.58 71.01"/>
                <polygon class="cls-4" points="52.5 69.33 57.41 66.49 57.63 67.8 52.72 70.63 52.5 69.33"/>
                <polygon class="cls-4" points="58.28 65.99 61.2 64.3 61.42 65.61 58.5 67.3 58.28 65.99"/>
                <polygon class="cls-4" points="38.5 70.85 41.21 69.29 41.43 70.59 38.72 72.16 38.5 70.85"/>
                <g>
                  <polygon class="cls-4" points="38.25 67.79 40.29 66.61 40.51 67.91 38.47 69.1 38.25 67.79"/>
                  <polygon class="cls-4" points="34.39 70.02 37.1 68.45 37.32 69.76 34.62 71.32 34.39 70.02"/>
                </g>
                <polygon class="cls-4" points="46.61 72.73 48.45 71.67 48.67 72.97 46.83 74.03 46.61 72.73"/>
                <polygon class="cls-4" points="43.74 74.38 45.58 73.32 45.8 74.63 43.96 75.69 43.74 74.38"/>
              </g>
              <polygon class="cls-4" points="57.86 89.36 64.13 85.73 64.35 87.04 58.08 90.66 57.86 89.36"/>
              <polygon class="cls-4" points="50.84 93.42 56.71 90.02 56.93 91.32 51.06 94.72 50.84 93.42"/>
              <polygon class="cls-4" points="47.85 95.14 49.69 94.08 49.91 95.38 48.07 96.44 47.85 95.14"/>
              <polygon class="cls-4" points="44.99 96.8 46.83 95.73 47.05 97.04 45.21 98.1 44.99 96.8"/>
              <polygon class="cls-4" points="43.42 97.7 39.46 99.99 39.68 101.3 43.64 99.01 43.42 97.7"/>
            </g>
          </g>
          <path class="cls-4" d="M249.15,229.42c-.08,0-.17-.02-.25-.07l-51.92-29.97c-.24-.14-.32-.44-.18-.67.14-.24.44-.32.67-.18l51.92,29.97c.24.14.32.44.18.67-.09.16-.26.25-.43.25Z"/>
          <path class="cls-4" d="M199.05,181.85c-.17,0-.34-.09-.43-.25-.14-.24-.06-.54.18-.67l51.92-29.98c.24-.14.54-.05.67.18.14.24.06.54-.18.67l-51.92,29.98c-.08.04-.16.07-.25.07Z"/>
          <path class="cls-4" d="M78.25,251.94c-.17,0-.34-.09-.43-.25-.14-.24-.06-.54.18-.67l51.92-29.98c.23-.14.54-.06.67.18.14.24.06.54-.18.67l-51.92,29.98c-.08.04-.16.07-.25.07Z"/>
          <path class="cls-4" d="M172.05,186.74c-.08,0-.17-.02-.25-.07l-51.92-29.97c-.24-.14-.32-.44-.18-.67.14-.24.44-.32.67-.18l51.92,29.97c.24.14.32.44.18.67-.09.16-.26.25-.43.25Z"/>
          <g>
            <g class="cls-50">
              <path class="cls-4" d="M266.99,293.72c-1.5,0-2.98-.39-4.27-1.14l-49.2-28.41c-.77-.45-1.24-1.25-1.24-2.14s.46-1.69,1.24-2.14l89.03-51.4c.15-.09.34-.09.49,0l.41.24,52.82,30.49c.77.45,1.23,1.25,1.23,2.14s-.46,1.69-1.23,2.14l-85,49.08c-1.29.75-2.77,1.14-4.27,1.14ZM302.79,209.48l-88.78,51.26c-.46.27-.74.75-.74,1.29s.28,1.02.74,1.29l49.2,28.41c2.29,1.32,5.27,1.32,7.56,0l85-49.08c.46-.27.74-.75.74-1.29s-.28-1.02-.74-1.29l-52.98-30.59Z"/>
            </g>
            <g>
              <path class="cls-46" d="M362.65,225.42l-5.17,2.7-51.79-29.9c-.87-.5-2.38-.44-3.38.14l-89.33,51.57c-.85-.48-4.75-2.35-4.75-2.35l1.89,4.93s0,0,0,0c.08.22.25.42.53.59l54.55,31.49c.87.5,2.38.44,3.38-.14l91.41-52.78c.41-.24.66-.52.77-.82h0s1.88-5.42,1.88-5.42Z"/>
              <path class="cls-45" d="M361.85,226.27l-93.68,54.09c-1.03.59-2.58.66-3.46.14l-55.9-32.28c-.89-.51-.78-1.41.25-2l93.68-54.09c1.03-.59,2.58-.66,3.46-.14l55.9,32.28c.89.51.78,1.41-.25,2Z"/>
              <path class="cls-40" d="M361.85,225.73l-93.68,54.09c-1.03.59-2.58.66-3.46.14l-55.9-32.28c-.29-.17-.46-.38-.54-.6-.14.42.03.85.54,1.14l55.9,32.28c.89.51,2.44.45,3.46-.14l93.68-54.09c.69-.4.96-.93.79-1.4-.1.3-.36.61-.79.86Z"/>
              <path class="cls-36" d="M239.91,268.65v-1.03c0-.1.06-.14.13-.1l3.62,2.09c.07.04.13.16.13.25v1.03c0,.1-.06.14-.13.1l-3.62-2.09c-.07-.04-.13-.16-.13-.25Z"/>
              <path class="cls-36" d="M245.33,271.78v-1.03c0-.1.06-.14.13-.1l3.62,2.09c.07.04.13.16.13.25v1.03c0,.1-.06.14-.13.1l-3.62-2.09c-.07-.04-.13-.16-.13-.25Z"/>
              <g>
                <path class="cls-48" d="M240.32,255.56l77.85-44.95c.52-.3,1.16-.3,1.68,0l27.72,16.04c.4.23.4.81,0,1.03l-77.81,44.93c-.52.3-1.16.3-1.68,0l-27.76-16.02c-.4-.23-.4-.81,0-1.04Z"/>
                <path class="cls-20" d="M240.32,256.59l.28.16,77.57-44.79c.52-.3,1.16-.3,1.68,0l27.44,15.88.28-.16c.4-.23.4-.8,0-1.03l-27.72-16.04c-.52-.3-1.16-.3-1.68,0l-77.85,44.95c-.4.23-.4.81,0,1.04Z"/>
                <g>
                  <polygon class="cls-47" points="321.94 214.67 250.23 256.08 246.67 254.66 318.93 212.94 321.94 214.67"/>
                  <polygon class="cls-47" points="329.31 218.93 265.88 255.55 262.87 253.81 326.3 217.19 329.31 218.93"/>
                  <polygon class="cls-47" points="334.11 221.7 259.43 264.82 256.42 263.08 331.1 219.97 334.11 221.7"/>
                  <polygon class="cls-47" points="338.91 224.47 264.23 267.59 261.23 265.85 335.91 222.74 338.91 224.47"/>
                  <polygon class="cls-47" points="343.71 227.25 269.03 270.36 266.03 268.63 340.71 225.51 343.71 227.25"/>
                  <polygon class="cls-47" points="250.23 256.08 247.22 257.81 244.22 256.08 247.22 254.34 250.23 256.08"/>
                  <polygon class="cls-47" points="269.53 253.44 254.59 262.07 251.59 260.33 266.63 251.65 269.53 253.44"/>
                </g>
              </g>
              <g>
                <path class="cls-28" d="M268.03,235.41l20.99-12.12c.82-.47.82-1.24,0-1.72l-14.35-8.29c-.82-.47-2.15-.47-2.97,0l-20.99,12.12c-.82.47-.82,1.24,0,1.72l14.35,8.29c.82.47,2.15.47,2.97,0Z"/>
                <path class="cls-20" d="M250.71,226.11l20.99-12.12c.82-.47,2.15-.47,2.97,0l14.35,8.29c.25.15.42.32.52.51.22-.41.05-.88-.52-1.21l-14.35-8.29c-.82-.47-2.15-.47-2.97,0l-20.99,12.12c-.57.33-.73.79-.52,1.21.1-.18.26-.36.52-.51Z"/>
              </g>
            </g>
            <g>
              <path class="cls-23" d="M362.5,224.03l-11.84-70.26.95-.4-1.43-.82h0c-.28-.18-.67-.17-1.1.08l-94.64,54.64c-.78.45-1.37,1.6-1.23,2.4l11.94,70.82c.06.37.24.61.5.72h0s1.4.81,1.4.81l.24-1.31-.08.02,94.07-54.31c.78-.45,1.37-1.6,1.23-2.4Z"/>
              <path class="cls-7" d="M254.96,209.2l-1.56-.69c-.17.4-.26.82-.2,1.17l11.94,70.82c.06.37.24.61.5.72h0s1.4.81,1.4.81l.24-1.31-.08.02,4.76-2.75-17-68.8Z"/>
              <path class="cls-44" d="M362.76,227.28l-94.64,54.64c-.73.42-1.36.18-1.48-.58l-11.94-70.82c-.14-.8.45-1.96,1.23-2.4l94.64-54.64c.73-.42,1.36-.18,1.48.58l11.94,70.82c.14.8-.45,1.96-1.23,2.4Z"/>
            </g>
          </g>
          <g>
            <path class="cls-4" d="M144.26,229.16c-1.16,0-2.29-.29-3.2-.81l-20.91-12.07c-1.15-.66-1.8-1.65-1.81-2.7,0-.96.54-1.82,1.49-2.37l100.61-58.09c1.57-.91,4.08-.83,5.83.18l20.91,12.07c1.15.66,1.81,1.65,1.81,2.7,0,.96-.54,1.83-1.49,2.37l-100.61,58.08c-.7.41-1.64.63-2.64.63ZM223.08,153.48c-.8,0-1.56.16-2.14.49l-100.61,58.09c-.63.37-1,.92-1,1.52,0,.69.48,1.36,1.31,1.84l20.91,12.07c1.38.79,3.64.88,4.85.18l100.61-58.08c.63-.37,1-.92,1-1.52,0-.69-.48-1.37-1.31-1.85l-20.91-12.07c-.77-.45-1.76-.67-2.71-.67Z"/>
            <path class="cls-2" d="M144.26,228.66c-1.03,0-2.1-.25-2.95-.74l-20.91-12.07c-.99-.57-1.56-1.4-1.56-2.27,0-.78.45-1.49,1.25-1.94l100.61-58.09c1.41-.82,3.76-.73,5.34.18l20.91,12.07c.99.57,1.56,1.4,1.56,2.27,0,.78-.45,1.49-1.24,1.94l-100.61,58.08h0c-.65.38-1.5.56-2.39.56Z"/>
            <g>
              <path class="cls-3" d="M206.36,120.12c-2.64,1.53-5.15,3.68-7.37,6.22-3.09-9.93-12.52-13.01-23.67-6.57-9.23,5.33-17.27,15.8-21.52,26.9-1.41.05-2.98.51-4.64,1.47-6.02,3.48-10.9,11.93-10.9,18.88,0,.15.01.29.02.43-1.72.12-3.61.73-5.61,1.88-7.7,4.45-13.94,15.26-13.94,24.15s6.24,12.5,13.94,8.05l73.7-42.55c9.3-5.37,16.83-18.42,16.83-29.15s-7.54-15.08-16.83-9.72Z"/>
              <path class="cls-15" d="M206.36,120.12c-1.53.89-3.02,1.99-4.43,3.24l-8.24-4.76h0c-4.53-3.18-11.08-3.04-18.37,1.17-9.23,5.33-17.27,15.8-21.52,26.9-1.41.05-2.98.51-4.64,1.47-6.02,3.48-10.9,11.93-10.9,18.88,0,.15.01.29.02.43-1.72.12-3.61.73-5.61,1.88-7.7,4.45-13.94,15.26-13.94,24.15,0,4.41,1.54,7.51,4.02,8.98h0s.06.04.06.04c0,0,0,0,.01,0l20.19,11.72,4.41-21.21,58.96-34.04c9.3-5.37,16.83-18.42,16.83-29.15s-7.54-15.08-16.83-9.72Z"/>
              <path class="cls-5" d="M238.81,130.88l-20.45-11.88h0c-3.05-1.81-7.3-1.59-11.99,1.13-1.53.89-3.02,1.99-4.43,3.24l-8.24-4.76h0c-4.53-3.18-11.08-3.04-18.37,1.17-9.23,5.33-17.27,15.8-21.52,26.9-1.41.05-2.98.51-4.64,1.47-6.02,3.48-10.9,11.93-10.9,18.88,0,.15.01.29.02.43-1.72.12-3.61.73-5.61,1.88-7.7,4.45-13.94,15.26-13.94,24.15,0,4.41,1.54,7.51,4.02,8.98h0s.06.04.06.04c0,0,0,0,.01,0l20.19,11.72,4.41-21.21,58.96-34.04c7.54-4.35,13.91-13.75,16.06-22.87l16.39-5.24Z"/>
              <path class="cls-33" d="M226.61,131.87c-2.64,1.53-5.15,3.68-7.37,6.22-3.09-9.93-12.52-13.01-23.67-6.57-9.23,5.33-17.27,15.8-21.52,26.9-1.41.05-2.98.51-4.64,1.47-6.02,3.48-10.9,11.93-10.9,18.88,0,.15.01.29.02.43-1.72.12-3.61.73-5.61,1.88-7.7,4.45-13.94,15.26-13.94,24.15s6.24,12.5,13.94,8.05l73.7-42.55c9.3-5.37,16.83-18.42,16.83-29.15s-7.54-15.08-16.83-9.72Z"/>
              <g>
                <path class="cls-40" d="M219.92,138.5c2.23-2.54,4.73-4.69,7.37-6.22,4.54-2.62,8.67-2.92,11.69-1.29-3.08-2.07-7.48-1.94-12.37.88-2.49,1.44-4.85,3.44-6.98,5.79.1.27.19.55.28.84Z"/>
                <path class="cls-40" d="M139.65,205.64c0-8.89,6.24-19.7,13.94-24.15,2-1.15,3.89-1.76,5.61-1.88,0-.15-.02-.28-.02-.43,0-6.95,4.88-15.41,10.9-18.88,1.66-.96,3.23-1.42,4.64-1.47,4.25-11.1,12.29-21.58,21.52-26.9,6.74-3.89,12.86-4.3,17.32-1.82-4.51-2.92-10.9-2.68-17.99,1.42-9.23,5.33-17.27,15.8-21.52,26.9-1.41.05-2.98.51-4.64,1.47-6.02,3.48-10.9,11.93-10.9,18.88,0,.15.01.29.02.43-1.72.12-3.61.73-5.61,1.88-7.7,4.45-13.94,15.26-13.94,24.15,0,4.57,1.65,7.73,4.29,9.14-2.25-1.56-3.62-4.57-3.62-8.73Z"/>
              </g>
            </g>
          </g>
          <g>
            <g class="cls-50">
              <path class="cls-4" d="M114.11,295.01c-1.5,0-2.98-.39-4.27-1.14h0l-85-49.08c-.77-.45-1.24-1.25-1.24-2.14s.46-1.69,1.23-2.14l53.23-30.73c.15-.09.34-.09.49,0l89.03,51.4c.77.45,1.24,1.25,1.24,2.14s-.46,1.69-1.24,2.14l-49.21,28.41c-1.29.75-2.77,1.14-4.27,1.14ZM110.33,293.01c2.29,1.32,5.27,1.32,7.56,0l49.21-28.41c.46-.27.74-.75.74-1.29s-.28-1.02-.74-1.29l-88.78-51.26-52.98,30.59c-.46.27-.74.75-.74,1.29s.28,1.02.74,1.29l85,49.08Z"/>
            </g>
            <g>
              <path class="cls-49" d="M18.45,226.71l5.17,2.7,51.79-29.9c.87-.5,2.38-.44,3.38.14l89.33,51.57c.85-.48,4.75-2.35,4.75-2.35l-1.89,4.93s0,0,0,0c-.08.22-.25.42-.53.59l-54.55,31.49c-.87.5-2.38.44-3.38-.14l-91.41-52.78c-.41-.24-.66-.52-.77-.82h0s-1.88-5.42-1.88-5.42Z"/>
              <path class="cls-42" d="M19.25,227.55l93.68,54.09c1.03.59,2.58.66,3.46.14l55.9-32.28c.89-.51.78-1.41-.25-2l-93.68-54.09c-1.03-.59-2.58-.66-3.46-.14l-55.9,32.28c-.89.51-.78,1.41.25,2Z"/>
              <path class="cls-40" d="M19.25,227.01l93.68,54.09c1.03.59,2.58.66,3.46.14l55.9-32.28c.29-.17.46-.38.54-.6.14.42-.03.85-.54,1.14l-55.9,32.28c-.89.51-2.44.45-3.46-.14l-93.68-54.09c-.69-.4-.96-.93-.79-1.4.1.3.36.61.79.86Z"/>
              <path class="cls-36" d="M141.19,269.94v-1.03c0-.1-.06-.14-.13-.1l-3.62,2.09c-.07.04-.13.16-.13.25v1.03c0,.1.06.14.13.1l3.62-2.09c.07-.04.13-.16.13-.25Z"/>
              <path class="cls-36" d="M135.77,273.07v-1.03c0-.1-.06-.14-.13-.1l-3.62,2.09c-.07.04-.13.16-.13.25v1.03c0,.1.06.14.13.1l3.62-2.09c.07-.04.13-.16.13-.25Z"/>
              <g>
                <path class="cls-48" d="M140.78,256.85l-77.85-44.95c-.52-.3-1.16-.3-1.68,0l-27.72,16.04c-.4.23-.4.81,0,1.03l77.81,44.93c.52.3,1.16.3,1.68,0l27.76-16.02c.4-.23.4-.81,0-1.04Z"/>
                <path class="cls-20" d="M140.78,257.88l-.28.16-77.57-44.79c-.52-.3-1.16-.3-1.68,0l-27.44,15.88-.28-.16c-.4-.23-.4-.8,0-1.03l27.72-16.04c.52-.3,1.16-.3,1.68,0l77.85,44.95c.4.23.4.81,0,1.04Z"/>
                <g>
                  <polygon class="cls-47" points="59.16 215.96 130.87 257.36 134.43 255.95 62.17 214.23 59.16 215.96"/>
                  <polygon class="cls-47" points="51.79 220.22 115.22 256.84 118.22 255.1 54.8 218.48 51.79 220.22"/>
                  <polygon class="cls-47" points="46.99 222.99 121.67 266.11 124.67 264.37 49.99 221.26 46.99 222.99"/>
                  <polygon class="cls-47" points="42.19 225.76 116.87 268.88 119.87 267.14 45.19 224.03 42.19 225.76"/>
                  <polygon class="cls-47" points="37.39 228.54 112.07 271.65 115.07 269.92 40.39 226.8 37.39 228.54"/>
                  <polygon class="cls-47" points="130.87 257.36 133.88 259.1 136.88 257.36 133.88 255.63 130.87 257.36"/>
                  <polygon class="cls-47" points="111.57 254.73 126.51 263.36 129.51 261.62 114.47 252.94 111.57 254.73"/>
                </g>
              </g>
              <g>
                <path class="cls-14" d="M113.06,236.7l-20.99-12.12c-.82-.47-.82-1.24,0-1.72l14.35-8.29c.82-.47,2.15-.47,2.97,0l20.99,12.12c.82.47.82,1.24,0,1.72l-14.35,8.29c-.82.47-2.15.47-2.97,0Z"/>
                <path class="cls-20" d="M130.39,227.4l-20.99-12.12c-.82-.47-2.15-.47-2.97,0l-14.35,8.29c-.25.15-.42.32-.52.51-.22-.41-.05-.88.52-1.21l14.35-8.29c.82-.47,2.15-.47,2.97,0l20.99,12.12c.57.33.73.79.52,1.21-.1-.19-.26-.36-.52-.51Z"/>
              </g>
            </g>
            <g>
              <path class="cls-41" d="M18.6,225.32l11.84-70.26-.95-.4,1.43-.82h0c.28-.18.67-.17,1.1.08l94.64,54.64c.78.45,1.37,1.6,1.23,2.4l-11.94,70.82c-.06.37-.24.61-.5.72h0s-1.4.81-1.4.81l-.24-1.31.08.02-94.07-54.31c-.78-.45-1.37-1.6-1.23-2.4Z"/>
              <path class="cls-38" d="M126.14,210.48l1.56-.69c.17.4.26.82.2,1.17l-11.94,70.82c-.06.37-.24.61-.5.72h0s-1.4.81-1.4.81l-.24-1.31.08.02-4.76-2.75,17-68.8Z"/>
              <path class="cls-44" d="M18.34,228.57l94.64,54.64c.73.42,1.36.18,1.48-.58l11.94-70.82c.14-.8-.45-1.96-1.23-2.4l-94.64-54.64c-.73-.42-1.36-.18-1.48.58l-11.94,70.82c-.14.8.45,1.96,1.23,2.4Z"/>
            </g>
          </g>
        </g>
      </g>
    </g>
  </g>
</svg>